<?xml version="1.0" encoding="UTF-8"?>
<svg xmlns="http://www.w3.org/2000/svg" viewBox="0 0 189.97 221.63">
  <defs>
    <style>
      .cls-1 {
        fill: #424143;
      }

      .cls-2 {
        fill: #010101;
      }

      .cls-3 {
        fill: #595a5c;
      }

      .cls-4 {
        fill: #f9f8f8;
      }

      .cls-5 {
        fill: #231f20;
      }

      .cls-6 {
        mix-blend-mode: multiply;
      }

      .cls-6, .cls-7 {
        fill: #d2d3d4;
      }

      .cls-8 {
        fill: #e6e7e7;
      }

      .cls-9 {
        fill: #a8aaad;
      }

      .cls-10 {
        isolation: isolate;
      }

      .cls-11 {
        fill: #221f20;
      }

      .cls-12 {
        fill: #1f1c1e;
      }

      .cls-13 {
        fill: #fff;
      }

      .cls-14 {
        fill: #262424;
      }

      .cls-15 {
        fill: #faf9fb;
      }

      .cls-16 {
        fill: #8fc640;
      }

      .cls-17 {
        fill: #1f1e1e;
      }

      .cls-18 {
        fill: #232122;
      }

      .cls-19 {
        fill: #868a88;
      }

      .cls-20 {
        fill: #f2f2f2;
      }

      .cls-21 {
        fill: #494a49;
      }

      .cls-22 {
        fill: #bdbec0;
      }

      .cls-23 {
        fill: #d7d7cf;
      }

      .cls-24 {
        fill: #818285;
      }

      .cls-25 {
        fill: #1f1d1e;
      }

      .cls-26 {
        fill: #c8c5c6;
      }

      .cls-27 {
        fill: #f8ed33;
      }

      .cls-28 {
        fill: #454945;
      }

      .cls-29 {
        fill: #1e1d1d;
      }
    </style>
  </defs>
  <g class="cls-10">
    <g id="Layer_2" data-name="Layer 2">
      <g id="Layer_1-2" data-name="Layer 1">
        <g>
          <g>
            <path class="cls-6" d="M66.08,100.06s-2.2,16.31,8.62,25.73c10.81,9.43,10.92,10.61,24.96,9.12,14.04-1.48,25.02-4.33,25.02-4.33l8.89-6.02,21.91-3.54s-5.19-17.63-8.02-18.52,5.88-.28,5.88-.28c0,0-18.55-9.35-40.76-15.99-25.5-7.62-35.84-5.8-35.84-5.8l-5.87,4.02,4.64,4.33-5.06-1.49-1.6,5.96,2.21,2.65-3.17,2.04-1.8,2.13Z"/>
            <g>
              <path class="cls-2" d="M51.58,83.95c.21.24.44.47.69.66,0,0,.01,0,.02.01.32.35.73.61,1.14.86.02.01.04.02.07.03-.03.04-.06.08-.08.11-.39.59-.71,1.2-.97,1.86-.3.77-.35,1.46-.33,2.28,0,.02,0,.05.02.07-.98,1.68-1.61,3.63-1.94,5.4-.32,1.68-.42,3.37-.32,5.08.09,1.48.51,2.79.99,2.97.28,2.05.84,6.56,2.38,6.85.39-2.03.42-3.34.76-5.36.06.34.12.67.19.98.36,1.72,1.09,3.42,2.14,4.85-.67.97-4.05,3.65-7.26,5.25-2.42,1.21-5.17,1.51-7.69.2-1.11-.58-2.09-1.61-2.21-2.87-.2-2.21.33-4.08,2.01-7.15.47-.87,2.09-3.47.15-4.21-1.94-.74-5.62,1.68-8.04,6.08-2.41,4.4-4,11.24.67,14.71,1.17.87,2.74,1.47,4.81,1.6-2.82,2.56-6.11,4.81-9.43,6.69-2.18,1.23-4.92,2.58-7.22,3.54-2.77,1.15-7.27,3.4-9.96,4.75-5.35,2.67-5.82,5.11-5.41,5.21,5.95,1.5,12.28.91,18.07-.85,3.11-.95,6.13-2.21,8.98-3.79-3.33,2.18-6.96,4.07-10.54,5.78-1.95.93-8.04,4.25-9.36,4.75-4.41,1.66-8.25,3.97-9.56,6.08-.48.77,4.01,2.74,9.45,1.69,3.18-.61,6.31-1.45,9.39-2.42,3.76-1.18,7.47-2.3,11-4.09,1.73-.88,4.4-2.73,6.06-3.94-.7,1.33-2.01,3.97-2.74,5.28-3.06,5.5-6.87,10.78-12.44,13.97-.39.22,2.09,2.09,6.16,1.52,2.21-.31,4.19-1.55,5.94-2.89,4.26-3.28,7.49-7.98,10.16-12.59,1.36-2.35,3.22-6.56,4.43-9.63-.47,4.55-3.2,14.38-4.68,18.59,1.14.62,3.17-.01,4.95-2.07,2.47-2.88,4.7-7.78,6.15-12.33.98-3.07,1.67-6.22,2.38-9.35.42-1.86.79-3.72,1.27-5.57.57-2.19,2-8.65,2.07-11.9.82,1.12,1.79,2.21,2.79,3.16,1.66,3.36,3.74,5.6,5.07,6.97,2.93,3.01,5.83,4.66,9.33,6.95,3.32,2.17,11.48,7.1,12.21,7.46,4.94,6.32,7.18,11.36,9,17.86-.1,3.33-.38,7.39-.47,8.33-.04.38-.1.76-.17,1.13-.19.18-.42.33-.58.55-.2.26-.38.51-.53.8-.37.67-.57,1.41-.67,2.17-.19,1.43.17,2.91.44,4.3.3,1.58.46,3.7.17,6.1-.29,2.39-3.4,14.59-3.63,15.32-4.37-1.19-13.09-3.37-16.62-3.53-1.71-.08-3.37.65-3.89,1.71-2.02-.21-3.54.02-4.49,1.06-1.49.18-2.29.95-2.61,1.77-2.28.11-4.78,1.02-6.4,2.71-.24.25,3.18,1.19,4.03,1.32-3.45.06-8.78.31-10.44,2.89-2.31.32-3.9,2.64-3.98,3.81-.01.21,2.67-.22,3.99-.59,1.78.93,5.82-.98,8.65-1.3,3.59-.41,7.31-.06,10.87.15,2.9.18,9.9-.12,13.78-.34-3.52.95-9.14,2.1-11.09,2.37-1.86.26-3.72.23-4.59.2-2.41-.09-4.62-.32-7.04,0-.98.13-2.08.63-2.79,1.33-3.13.21-3.92,3.46-3.76,3.45.55-.04,2.25-.49,3.28-.38,1.26,1.11,14.83-.39,18.02-.75,6.07-.69,11.98-2.34,17.76-4.4.72.28,4.79,3.03,6.52,4.13,1.73,1.09,3.87,3.06,6.07,2.22.34.2,2.09,1.36,3.04,2.06.72-1.56-.24-3.51-1.5-4.54-.16-.53-.54-1-.92-1.37-1.63-1.58-3.95-2.53-6.03-3.35-1.35-.53-3.91-1.31-4.55-1.6-.65-.29-1.13-.93-1.22-1.58,2.97.28,8.05.49,9.85-2.09,1.85.4,4.36,1.33,5.72,2.2,1.36.87,2.91,2.72,4.04,2.84.62.7,1.58,2.35,2.42,2.69.59-1.17.73-2.78.1-4.11.32-1.2-1.14-3.09-2.14-3.88-2.56-2.01-6.05-3.21-9.76-3.43,0-2.35,1.01-9.7,1.49-11.94.94-4.36,2.39-11.38,2.98-13.14,2.09-1.32,3.6-3.84,3.57-6.27-.03-2.31-1.33-4.77-3.47-5.8-.68-2.29-1.42-5.76-1.64-7.9.91-1.77.87-6.99,3.87-7.07,2.76,3.34,5.98,5.59,8.38,4.95-1.66-2.2-2.83-4.01-4.05-6.43,3.12,3.01,7.47,6.09,9.82,5.35-1.53-1.35-2.94-4.31-3.81-6.11.98.7,2.63,1.96,4.2,2.13.29.22.72.94,2.1.17,1.32-.73,2.83-1.66,3.47-2.69.83-.29,1.61-.73,2.05-1.42,1.47-.39,3.64-1.39,4.74-2.83-1.3-1.1-2.72-2.76-3.62-4.21,1.57,1.47,4.44,3.01,5.92,2.11-.76-1.32-2.24-3.65-2.03-5.24.18-1.45,1.47-2.83,2.43-3.84,1.17-1.23,2.53-2.28,3.95-3.2,1.32-.86,2.75-1.64,4.3-1.99-.09.91-.18,2.66-.44,3.53,1.47-.1,2.49-1.32,2.93-2.54.11,2.92-.11,5.21-.26,8.13,1.48.37,3.21-1.58,3.73-3.24.1,1.12.49,3.96.61,5.26,1.54.16,2.12-3.07,2.15-6.19.12.86.41,2.13.66,2.97.22.74,2.65,1,3.24,1.09.18,1.11.51,2.85.82,3.94,1.23-.05,1.68-3.02,1.91-4.33.39.13,1.36.2,1.86.03,0-1.76.03-4.16-.1-5.91.64,2.05,1.24,4.12,1.48,6.15,1.79.25,1.61-4.06,1.55-6.3,1.08,2.68,1.99,5.14,2.76,7.92,1.1-.49,1.74-3.91.69-8.56.8,1.81,1.36,3.31,1.98,5.19.45.13.77-.89.77-1.47.42.7,1.02,1.69,1.34,2.44,1.41-.78,1.61-4.98.93-8.23,1.61.83,4.58,2.42,5.62,1.93-1.87-3.71-6.27-9.21-9.79-12.11,1.77.33,3.67,1.07,4.63,1.69.48-1.36-2.36-3.85-5.04-5.62-2.34-1.55-4.76-3.04-7.32-4.18-2.58-1.14-5.31-1.97-8.08-2.54-2.5-.52-4.37-.48-5.47-.05-3.76-1.64-7.54-3.37-11.45-4.55,2.55.04,6.64.63,8.33.38-2.18-1.94-6.82-4.21-9.91-5.18-7.42-3.49-15.18-6.3-23.03-8.63-8.74-2.59-17.62-4.65-26.4-7.12-4.41-1.24-8.89-2.14-13.47-2.45-2.22-.15-4.45-.15-6.67.02-1.72.13-3.5.37-5.14.78.51-1.91,11.38-5.93,10.64-7.54-.54.43-3.3-.95-12.54,3.35.28-.91.18-2.35-.7-2.92-.25.73-.79,1.64-1.33,2.2-.43-1.06.11,2.72-.59,2.72,0,.62-1.22-3.15-1.19-2.67.44,10.48-1.78,1.85-2.58,2.32M111.31,179.26c-.68,4.1-4.34,18.1-5.86,24.14-.99-.09-3.43-.35-4.16-.49.32-1.4,3.58-17.79,3.97-22.28,1.15-1.04,3.76-2.93,4.34-6.06.24-1.31-1.84-4.25-3.79-5.72-.06-2.1.28-4.15.66-6.76.15.36.52.91.6.49.45-2.24,1.22-6,1.65-7.83.25,1.53.84,3.15,1.25,3.99.17,3.88,1.19,6.84,1.45,10.73-1.03,2.1-.67,6.69-.1,9.77Z"/>
              <path class="cls-21" d="M55.94,212.43c-.97.2-1.89.3-2.67.38.69-1.36,1.89-2.22,2.79-2.49-.24.57-.3,1.44-.12,2.12Z"/>
              <path class="cls-21" d="M63.42,217.85c-.55-.09-1.44.1-2.08.23.32-1.25,1.46-2.18,2.67-2.55-.45.62-.64,1.53-.58,2.33Z"/>
              <path class="cls-28" d="M53.83,83.67c.5-.89,1.69-1.76,2.73-2.32-.4.05-1.22.02-1.81-.05-.58.38-1.13.8-1.6,1.29.07.04.15.07.22.11.18.1.19.39,0,.49-.15.08-.29.18-.42.3.48.52.95.87,1.32,1.06.18-.19.36-.37.55-.54-.21,0-1.07-.18-.98-.34Z"/>
              <path class="cls-13" d="M57.76,144.47c-1.91,7.33-5.75,15.61-9.12,16.1,1.23-3.63,2.26-7.33,3.05-11.09,1.15-5.45,2.44-13.55,1.03-13.67-.1,1.02-1.24,5.03-2.92,8.84-1.05,2.38-2.19,4.71-3.48,6.97-2.65,4.64-5.82,9.26-10.02,12.64-2.61,2.1-5.98,3.6-9.15,2.32,4.95-3.03,8.37-7.93,11.17-12.93,1.69-3.01,7.77-14.91,9-17.12-1.27-.08-4.09,4.87-6,8.44-2.2,2.07-4.87,3.79-7.63,5.11-3.43,1.63-6.98,2.99-10.63,3.99-3.01.82-5.96,1.69-9.02,2.37-4.08.91-8.39.18-8.04-.37,1.02-1.58,4.33-3.19,5.78-3.81,1.42-.61,3.76-1.41,5.16-2.06,1.63-.76,3.15-1.73,4.75-2.55,3.96-2.03,7.59-3.91,11.44-6.16,3.56-2.09,11.11-8.17,10.21-11.27-.33.7-1.63,2.1-3.09,3.5-1.46,1.4-4.33,3.15-6.87,4.59-2.73,1.55-5.65,2.78-8.65,3.72-5.28,1.66-11.26,2.66-16.76,1.51.18-.98,5.86-4.28,12.04-7.1,2.44-1.11,4.93-2.1,7.35-3.25,1.37-.65,2.65-1.45,3.94-2.24,1.84-1.13,3.64-2.32,5.32-3.67,1.09-.88,2.15-1.8,3.08-2.85,3.89-.27,4.61-1.28,4.33-1.26-.84.06-3.88.26-6.3-.2-1.13-.21-2.27-.7-3.21-1.4-1.94-1.45-2.55-3.85-2.44-6.17.13-2.83,1.07-5.93,2.61-8.28,1.53-2.34,3.59-4.45,5.57-4.62,2.49-.21.3,2.91-.17,3.85-1.1,2.23-2.46,4.84-1.83,7.4.64,2.64,3.36,3.95,5.85,4.11,2.95.19,4.89-.53,7.35-2.04,1.69-1.04,3.75-2.81,5.31-4.6.07.08.53.27.89.19,1.07,2.53,2.84,5.69,4.22,7.62.21.3.27-.66.4-1.03.24.53.52,1.05.83,1.55-.02,1.94-3.49,17.72-5.37,24.95Z"/>
              <path class="cls-8" d="M59.81,126.82c.44.91.92,1.81,1.43,2.7,1.05-4.88,1.87-9.06,1.88-10-.31-.5-.59-1.02-.83-1.55-.13.37-.19,1.33-.4,1.03-1.38-1.94-3.15-5.09-4.22-7.62-.36.07-.82-.11-.89-.19-.42.48-.87.95-1.34,1.42.76,4.91,2.21,9.76,4.37,14.22Z"/>
              <path class="cls-7" d="M45.38,138.22c-2.07,1.45-3.75,3.53-5.48,5.31-2.28,2.35-4.62,4.66-7,6.92.27-.12.54-.25.81-.38,2.75-1.31,5.43-3.04,7.63-5.11,1.19-2.23,2.74-5,4.04-6.74Z"/>
              <path class="cls-7" d="M43.04,123.82c-.68.24-1.74.47-3.32.58-.93,1.05-1.99,1.97-3.08,2.85-.1.08-.2.15-.29.23,1.44-.12,2.87-.69,4.08-1.43.96-.59,1.91-1.33,2.61-2.23Z"/>
              <path class="cls-13" d="M95.83,146.33c2.2.92,7,2.21,9.2,1.66-2.54-.58-5.88-1.52-10.82-3.87-3.68-1.75-7.06-4.11-10.47-6.32-3.39-2.2-6.87-4.25-9.92-6.93-1.67-1.46-3.29-3.01-4.51-4.87-1.55-2.35-2.57-4.25-3.2-5.83-.37.04-.22,1.39-.17,1.85-1.44-1.86-3.37-4.24-3.75-6.58-.4.51-.55,1.54-.59,1.76-.9-1.27-3.85-5.94-4.54-12.28-.55.33-.2,3.47.21,5.08-.87-.14-3.22-4.72-2.72-9.96-.53-.07-.8,1.94-.74,3.03-.56,1.7-.88,3.63-1.04,5.52-.81-1.18-1.14-4.35-1.19-6.59-.06-3.17.1-5.79,1.16-8.51-.71-.2-2,5.42-1.88,8.64-.44-.56-.71-3.03-.22-5.98.24-1.46.93-3.57,1.55-4.92.63-1.39,1.51-2.58,2.31-3.88-.48-.11-1.43,1.04-1.93,1.77.06-.97.51-1.97,1.08-2.91.7-1.15,1.91-2.38,3.12-3.22-.2-.32-.66.04-1.43.58,0,0,0,0,0,0-.22-.05-.46-.07-.69-.09.5-.68,2.05-1.96,4.45-2.81-.13-.36-1.09.11-1.26.15-.59,0-1.42.04-2.49.05,1.72-1.22,4.32-1.74,8.43-1.59-.73-.48-3.6-.39-4.34-.31.86-.97,2.98,2.25,6.17,1.93.1,0,.1-1.02-1.42-.7.04-.28,2.52,3.57,2.47,3.32,1.16-.51-1.45-7.74-.79-7.5.13-.46.24,2.45.23,2.06.33-.11.73-2.83.87-1.99.59-.15,3.31-3.74,3.6-4.31.33.59-1.5,3.98-1.84,4.75-.14.15-.51.7-.65.85.39.33,1.12-.5,1.54-.95.48,1.54,1.46,2.78.58,4.19-1.51.5-2.3,1.24-1.87,1.12,2.82-.81,6.47-1.22,8.43-1.34,6.03-.37,12.22.56,17.95,2.08,4.3,1.14,8.57,2.34,12.88,3.46,4.43,1.15,8.87,2.3,13.27,3.56,4.86,1.4,15.16,4.62,18.91,6.5-.4-.09-12.78-3.19-19.76-4.77-2.21-.5-3.58-.47-3.46-.44,4.08,1.22,27.44,7.13,30.5,8.21,2.12.75,4.44,1.91,6.31,3.19-3.67-.66-10.99-.88-11.62-.22,1.84.25,3.87.9,5.6,1.46,1.4,1.03,3.27,3.33,4.33,5.21,1.31,2.32,2.24,4.87,2.87,7.45.4,1.62.72,3.25.96,4.9-3.25.99-7.55,1.23-11.14,1.42-1.87.1-8.73.57-10.14,1.06-.44-.53-2.09-1.32-1.92-1.1.37.47,1.67,1.85,1.28,2.16-2.07,1.62-7.6,5.04-10.14,5.98-1.18.44-2.42.72-3.68.72-1.3,0-2.49-.38-3.65-.91-1.28-.58-5.95-3.11-7.07-3.68-.39.61,6.03,4.58,7.42,5.18-1.55.09-3.11.2-4.67.19-2.07,0-4.13-.3-6.13-.82-1.9-.5-3.73-1.23-5.49-2.09-.9-.43-5.22-2.63-6.44-3.36-.26.89,5.13,4.03,6.12,4.55,1.87.98,3.82,1.77,5.85,2.33.83.23,1.69.42,2.56.56-3.27,1.63-5.08,1.89-7.08,1.87-.89-.01-2.86-.58-4.06-1.07-2.54-1.04-4.79-2.69-7.33-3.75-2.06-.86-4.4-1.43-6.12-2.93-.27.17.24,1.31,2.37,2.48.98.54,2.01.98,3.02,1.43,2.16.97,4.14,2.29,6.22,3.41-1.73.29-4.22.22-7.87-.95-3.45-1.11-6.58-3.06-9.32-5.41-5.53-4.72-9.92-11.45-11.54-18.57-.54-2.37-1.01-5.37.23-7.6,1.32-2.38,4.5-2.77,6.95-2.66.21,0-.77-.74-3.09-.53-2.05.18-3.35.81-4.42,2.18-1.51,1.92-1.46,4.68-1.17,6.98.85,6.82,4.34,13.15,8.87,18.23,3.07,3.44,6.8,6.31,11.03,8.14,2.05.89,4.22,1.49,6.45,1.71,2.58.26,4.77-.04,5.95-.49,2.17.88,4.38,1.07,6.7.48,1.09-.28,2.14-.7,3.18-1.13,1.77,4.36,4.49,9.59,7.56,12.87-.73.26-3.6.46-6.41.13,0,.67.67.94,1.39,1.02-2.39,4.33-3.07,9.75-3.33,11.68-.02.01-.2-.49-.31-.78-.24.81-.57,1.58-.67,2.01-.38-.62-.91-1.24-1.17-1.92-.52.49-.95,1.25-1.29,1.71-.36-3.01-2.31-8.97-7.17-15.4Z"/>
              <path class="cls-22" d="M103.8,148.12c-2.44.02-6.12-1.01-7.98-1.79.84,1.12,1.6,2.22,2.27,3.29,1.97.49,3.89-.48,5.71-1.5Z"/>
              <path class="cls-16" d="M68.85,89.74c-.38-1.11-1.04-2.8-1.54-3.87-.25,1.83-1.59,6.49-1.7,6.28-.4-.76-1.04-2.66-1.43-3.43-.91,1.57-1.27,3.58-1.39,3.36-.33-.63-.61-2.09-.92-2.72-.55,1.3-1.42,2.65-1.76,4.51-1.01-1.3-1.19-3.8-1.17-5.37-.92.65-1.91,1.73-2.53,2.69-.14.22-.67,1.9-.54,2.86.43-.55,1.82-1.79,1.88-1.54.45,1.81.96,3.72,2.08,5.24.41-.91,1.38-2.09,2.07-2.45.26.6.83.98,1.23,1.48.27-.63,1.2-2.13,1.36-1.98.28.27,1.48,1.44,1.67.93.48-1.31,1.59-3.92,1.67-3.73.21.51.66.84,1,1.25.67-2.02,1.67-4.34.63-7.57-.21.74-.53,4.34-.62,4.06Z"/>
              <path class="cls-22" d="M136.81,100.45c-4.65-.17-9.34-.1-13.81-1.56-2.68-.88-5.21-2.13-7.77-3.3-1.83-.84-3.72-1.64-5.68-2.11,4.71,2.49,9.15,5.46,14.06,7.59,5.24,2.28,11.52,3.92,16.74.85-1.13-.34-2.25-.71-3.34-1.14-.15-.06-.2-.2-.19-.32Z"/>
              <path class="cls-22" d="M148.58,104.6c1.48,3.23,3.19,6.42,3.95,9.91.42,1.91.57,3.9.18,5.83-.1.47-.22.93-.37,1.38,1.11-.18,2.17-.41,3.14-.7-.23-1.65-.56-3.28-.96-4.9-.63-2.59-1.56-5.13-2.87-7.45-.76-1.35-1.94-2.91-3.06-4.07Z"/>
              <path class="cls-7" d="M86.01,129.81c-.4-.22-.74-.44-1.03-.65.37.66.75,1.31,1.23,1.88.74.9,1.73,1.47,2.81,1.87,1.64.59,3.35.9,5.08,1.09-1.67-.96-3.3-1.97-5.06-2.76-1.01-.46-2.05-.89-3.02-1.43Z"/>
              <path class="cls-7" d="M101.67,115.69c3.67,4,8.03,7.56,13.18,9.2"/>
              <path class="cls-7" d="M107.08,110.71c2.86,2.24,5.75,4.44,8.79,6.42,2.66,1.72,5.48,3.39,8.49,4.49"/>
              <path class="cls-7" d="M96.37,128.23c1.31,1.81,3.07,3.34,5.19,4.06,1.39.48,2.78.58,4.13.36,0,0,0,0-.01,0-2.03-.56-3.98-1.36-5.85-2.33-.49-.26-2.04-1.15-3.46-2.09Z"/>
              <path class="cls-7" d="M115.8,99.78c.26.57.51,1.81.36,1.8-2.92-.26-5.78-1.34-8.73-1.45-.05.39.19,1.76.33,2.14.08.22-5.82-2.61-8.81-2.96-2.84-.33-5.16,0-8.06-.07-2.15-.05-4.74-.33-6.89-.41-1.06-.04-4.78-1.01-5.16-1.24,1.02,1.96,3.98,2.95,5.98,3.22,2.46.34,4.93.24,7.4.29,6.59.15,13.48,1.5,19.3,4.72-.23-.8-.37-1.62-.66-2.39-.07-.17,6.44,1.26,9.62,1.79-.39-2.43-2.41-4.51-4.68-5.44Z"/>
              <path class="cls-22" d="M69.88,123.23c1.9,3.13,4.21,5.98,7.06,8.31,2.76,2.26,5.89,4.02,9.22,5.29,3.29,1.26,6.72,2.1,10.2,2.68,1.82.3,3.66.57,5.5.75,1.74.16,4.15-.32,5.59-1.13.54,3.36,1.9,6.33,3.71,9.07,1.72.02,3.14-.13,3.63-.3-3.06-3.28-5.79-8.51-7.56-12.87-1.04.43-2.09.85-3.18,1.13-2.32.59-4.53.39-6.7-.48-1.18.45-3.38.75-5.95.49-2.23-.22-4.4-.82-6.45-1.71-4.24-1.83-7.97-4.71-11.03-8.14-4.53-5.08-8.02-11.41-8.87-18.23-.04-.34-.08-.69-.11-1.05-.7,5.56,2.2,11.68,4.96,16.21Z"/>
              <path class="cls-3" d="M74.21,200.59c2.42-.12,18.83,2.83,19.04,2.92.22-.7-2.4-1.09-3.8-1.38-3.01-.61-10.13-2.04-11.83-2.13.63-1.02,1.91-1.19,2.96-1.09,3.79.36,14.46,2.85,16.04,3.63-.16.51-.55,2.12-.94,3.53-2.79-.34-14.26-1.91-16.96-2.39-1.71-.3-4.84-.73-6.57-.87.07-1.51.94-2.18,2.07-2.24Z"/>
              <path class="cls-28" d="M72.15,202.76s0,.04,0,.07c1.73.13,4.86.56,6.57.87,2.71.48,14.18,2.05,16.96,2.39.05-.17.09-.35.14-.52-7.81-1.7-15.71-3.94-23.67-2.81Z"/>
              <path class="cls-21" d="M71.67,201.41c-.24.42-.31.9-.38,1.33-.51-.02-1.02-.03-1.52-.02.48-.81,1.17-1.08,1.9-1.31Z"/>
              <path class="cls-21" d="M63.84,205.27c.54-.38,2.07-1.17,2.7-1.38-.12.36-.33,1.33-.27,1.71-.57-.08-1.87-.22-2.43-.33Z"/>
              <path class="cls-21" d="M113.64,218.05c.51.34,1.3,1.65,1.02,2.46-.59-.5-1.42-1.02-1.95-1.26.43-.3.78-.71.93-1.2Z"/>
              <path class="cls-1" d="M100.36,210.53c.98,1.08,5.63,2.32,7.28,3.03,1.14.49,4.05,1.76,4.98,3.32.38.65-.2,1.32-.8,1.61-.9.45-2.03-.1-2.81-.53-2.4-1.31-9.23-5.94-9.44-5.87-5.96,1.86-11.48,3.63-17.44,4.3-5.85.66-17.45,1.83-17.69.95-.24-.89.27-1.64,1.06-2.04.94-.47,2.66-.69,3.68-.67,2.23.05,5.79.32,8.01.1,3.42-.34,5.51-.8,8.97-1.66,1.83-.45,8.6-2.13,9.48-3.3.28-.38-3.37.68-3.67.81-4.1-.29-12.47.32-15.41.15-3.51-.2-7.3-.67-10.81-.2-2.95.4-7.06,1.88-8.31,1.66-1.25-.22-.98-2.1.44-3.13,1.59-1.15,4.31-1.17,5.8-1.31,4.76-.45,9.4,0,14.13.48,3.24.33,6.95.65,10.21.78,1.92.08,4.9.24,5.86-.34.34-.21-1.32-.11-3.76-.24-2.01-.11-4.59-.42-6.63-.65-1.27-.14-15.21-1.83-16.83-2.04-.08-.61.06-1.49.37-1.96,2.66-.8,7.66.11,10.24.58,2.45.44,5.93.97,8.41,1.3,3.17.42,10.8,1.57,10.87,1.38.1-.27,2.9-11.02,4.07-16.1.68-2.96,1.41-6.35.98-9.38-.21-1.47-.61-2.91-.75-4.4-.07-.73-.03-1.47.12-2.19.07-.33.34-1.67.78-1.82,0,.54.2,2.48.44,1.76.6-1.82.79-9.54.61-11.28.27-.78.8-1.87,1.31-2.38.39.65.86,1.23,1.32,1.93-.84,3.77-.75,8.37.62,9.99.43.5,1.23.67.89.14-.5-.78-.81-2.44-.99-3.3.3.35,2.73,3.19,2.38,4.69-.42,1.78-2.76,4.13-3.05,4.42-.05-.88,0-1.86-.49-1.81-.14.53-1.03,6.83-1.37,8.7-.73,4.1-1.91,10.02-2.62,13.2-.55,2.45-1.11,4.86-1.29,7.37-.1,1.39-.06,2.97.83,3.96Z"/>
              <path class="cls-19" d="M63.46,208.61c3.23-.2,6.47-.33,9.69-.08,3.61.28,6.58.4,10.21.63,1.63.11,2.86,0,3.94-.18-3.07-.15-6.47-.44-9.46-.75-4.73-.49-9.38-.93-14.13-.48-1.49.14-4.21.16-5.8,1.31-.64.46-1.04,1.09-1.18,1.67,1.93-1.45,4.34-1.98,6.74-2.12Z"/>
              <path class="cls-19" d="M66.84,204.58c2.49-.55,4.16-.4,6.62-.13,2.48.27,5.22.76,7.69,1.1,3.4.47,5.47.51,7.95.59-1.3-.18-2.52-.35-3.39-.47-2.47-.32-5.96-.86-8.41-1.3-2.58-.46-7.58-1.38-10.24-.58-.14.21-.24.5-.31.81.03-.01.06-.01.09-.02Z"/>
              <path class="cls-28" d="M97.86,211.77c-.98.11-1.89.67-2.77,1.08-1.22.56-2.44,1.17-3.69,1.7,2.56-.69,5.12-1.5,7.77-2.32-.36-.31-.79-.52-1.31-.46Z"/>
              <path class="cls-28" d="M90.15,208.43c.83.04,1.57.06,2.17.08-1.25-.5-2.7-.62-3.98-.85-2.27-.4-4.54-.9-6.82-1.24-3.71-.55-7.47-.72-11.19-.23,4.72.58,12.27,1.49,13.19,1.59,2.04.23,4.62.54,6.63.65Z"/>
              <path class="cls-21" d="M122.53,213.72c-.28-.52-.62-1.03-1.02-1.47.39-.15.85-.61,1.13-.88.29.83.19,1.86-.11,2.35Z"/>
              <path class="cls-3" d="M116.17,170.97c.18.38.41-2.08.05-2.9,1.24.44,2.71,3.58,1.14,6.7-.9,1.8-2.15,2.74-3.62,3.57-.47.27.08.39.51.53-.99,4.56-1.99,8.7-2.75,12.86-1.07,5.86-1.61,11.68-1.46,12.41,3.42,0,6.24.72,8.75,2.25,1.34.81,2.64,1.89,3.23,2.98.56,1.06-1.09,2.11-1.65,1.58-.56-.53-2.35-2.07-3.62-2.76-2.17-1.16-4.18-1.77-6.8-2.29-.25-.05-.11.51-.05.56-1.91,2.24-7.89,1.73-9.18,1.73-.09-.88.24-3.68.36-4.26.93.15,4.6.43,5.26.69.88-3.27,4.94-20.82,6-24.85.21-.79-1.8-6.96.1-9.7,0-2.09-.41-4-.72-6.07-.28-1.89-.63-3.74-1.15-5.57.26-.71.6-1.38.89-2.08.35.53.94,1.26,1.59,1.78.13,2.37,1.25,8.72,3.13,12.84Z"/>
              <path class="cls-28" d="M111.79,158.34c.16-.16.41-.07.47.13.16.45.5.78.9,1.03-.07-.54-.11-1-.13-1.37-.66-.52-1.24-1.25-1.59-1.78-.28.7-.63,1.37-.89,2.08.1.35.19.69.27,1.04.3-.39.61-.77.96-1.13Z"/>
              <path class="cls-28" d="M118.41,208.36c-1.8-1.88-4.45-3.41-6.88-2.11,1.88.45,3.49,1.02,5.2,1.94,1.27.69,3.06,2.23,3.62,2.76.02.02.04.03.06.05-.58-.98-1.28-1.88-2-2.63Z"/>
              <path class="cls-28" d="M102.15,204.06c-.47-.05-.86-.09-1.09-.13-.11.58-.45,3.38-.36,4.26.47,0,1.58.07,2.88.05-.47-1.4-.96-2.78-1.44-4.18Z"/>
              <path class="cls-13" d="M113.56,156.58s-.03,0-.04-.01c-.09-.17-.31-.93-.4-1.11-.21-.43-.6.94-.59.99-.31-.42-.93-1.37-1.12-1.87-.49.93-.93,1.92-1.22,2.57-.36-1.31-.78-2.42-1.05-3.93.42-1.38,1.02-2.76,2.09-3.65.48.07.97.08,1.45.07,1.03-.03,2.09-.24,3.03-.67.38.43.76.85,1.16,1.26-2.33.66-3,3.84-3.31,6.34Z"/>
              <path class="cls-13" d="M155.84,126.9c-1.73.38-3.67,1.3-5.15,2.29-1.56,1.04-3.04,2.25-4.29,3.66-1.07,1.2-2.19,2.65-2.38,4.29-.17,1.42.54,2.78,1.26,4.02-1.54.19-3.59-1.32-5.24-2.76-.99.37,1.61,4.57,3.24,6.16-.76.95-1.93,1.59-3.33,1.73-1.49-1.37-4.9-7.35-5.64-8.79-.54.73,3.55,8.04,4.81,9.21-.27.47-1.11.78-1.14.86-1.91-2.25-4.97-7.39-5.98-9.14-1.06.59,4.83,9.34,5.14,9.62-.53.79-2.44,2.16-3.47,2.41-.62.15-6.82-8.42-7.81-10.79-.83.53,3.22,7.22,6.1,10.49-.93.1-3.53-1.18-4.5-2.69-.68-1.17-1.23-2.5-1.42-2.88-1.29.44,2.1,6.96,3.52,8.94-1.81.63-10.33-7.18-13.29-12.61-.68.73,1.12,4.25,4.27,7.49.9,2.05,1.87,4.07,3.15,5.9-2.24-.15-7.37-6.11-8.77-7.72-3.06-3.51-5.17-7.63-7.31-11.73,1.16-.49,2.15-.97,3.16-1.33,2.45.08,5.42-.23,7.69-1.07,1.97.31,3.99-.08,5.89-.82,2.7-1.05,5.12-2.71,7.49-4.35.65-.45,2.19-1.5,2.52-1.79.48-.4.6-.76.5-1.01.64-.09,1.28-.21,1.92-.28.87-.1,1.74-.17,2.61-.23,1.8-.12,3.6-.16,5.39-.22,3.53-.12,8.04-.64,10.81-1.59.25,1.2.25,3.83.22,4.73Z"/>
              <path class="cls-23" d="M120.56,148.39c-1.44-1.48-2.6-3.02-3.36-4.32.24,1.27.63,2.52,1.13,3.72.81,1.95,1.8,3.78,3.37,5.22.42.38.85.74,1.29,1.08.26.11.51.18.72.2-1.27-1.83-2.24-3.85-3.15-5.9Z"/>
              <path class="cls-23" d="M133.04,141.54c.46,2.24,1.4,4.41,2.52,6.34.21.37.43.73.67,1.09.41-.34.75-.67.93-.94-.2-.18-2.62-3.74-4.12-6.49Z"/>
              <path class="cls-23" d="M131.55,150.11c-1.53-1.34-3.22-2.56-4.73-3.9.2.4.42.83.66,1.24.85,1.31,2.94,2.46,4.07,2.66Z"/>
              <path class="cls-22" d="M155.62,122.16c-2.77.94-7.28,1.46-10.81,1.59-1.8.06-3.6.1-5.39.22-.87.06-1.74.13-2.61.23-.64.08-1.28.2-1.92.28.09.24-.03.6-.5,1.01-.34.28-1.87,1.33-2.52,1.79-2.37,1.64-4.79,3.3-7.49,4.35-1.9.74-3.92,1.14-5.89.82-2.28.84-5.24,1.15-7.69,1.07-1.02.36-2,.85-3.16,1.33.47.91.95,1.82,1.43,2.72,3.63-.71,7.26-1.44,10.91-2.01,2.01-.32,4.03-.6,6.07-.77,1.94-.17,3.69-.5,5.46-1.36,1.69-.82,3.27-1.84,4.89-2.79,1.62-.94,3.24-1.68,5.01-2.28,4.24-1.43,8.55-2.86,13.05-3.09.15,0,.29.14.28.28-.04.57-.09,1.14-.16,1.7.43-.15.87-.27,1.29-.36.03-.91.02-3.53-.22-4.73Z"/>
              <path class="cls-1" d="M182.65,126.2c-.24.44.81,1.27,1,1.37.46,2.59.51,5.03-.15,6.9-.2-.39-1.05-1.44-1.34-1.92-.1-4.01-.93-7.62-1.54-7.19.42,1.38,1.15,6.66.74,7.88-.68-1.92-2.33-5.96-3.01-5.38,1.02,4.84.89,7.84.43,8.8-.92-2.67-2.49-7.87-3.62-8.4,0,2.22.15,6.3-.37,6.91-.45-2.2-1.22-4.31-2.22-6.33-.29,1.62-.4,4.78-.4,7.06-.29-.05-.64-.11-.94-.1.35-2.88-.08-8.75-1.02-8.61.2,2.13.26,4.29.21,6.43-.05,1.8-.24,3.88-.83,5.58-.68-3.96-1.37-13.24-2.36-12.87.45,3.23.56,6.53,1,9.77-.79-.12-1.64-.4-2.34-.7-.61-1.94-1.05-4.5-1.25-6.3-.34-6.36-.78-10.52-1.77-10.49.81,6,1.53,17.27-.03,18.69-.4-2.95-.68-8.17-1.22-12.07-.63-4.54-1.32-7.92-2-7.84.78,3.34,1.89,13.24,1.96,14.38-.63,1.5-1.33,3.12-2.48,4.31.26-3.17.09-6.9-.22-11.09-.31-4.19-1.17-8.55-2.04-9.14.38,2.06,1.21,9.43,1.21,11.3-.34,1.12-.97,2.19-1.46,2.24.25-1.57.3-3.53.22-5.1-.16-2.8-.65-5.61-1.45-8.29-.81-2.74-3.06-9.07-6.84-12.26,3.29,1.13,12.5,5.08,13.89,5.42-.04-.37-1.54-1.23-2.35-1.58,2.9-.44,9.4,1.69,11.88,2.79,5.12,2.26,10.45,5.73,11.13,7.33-1.37-.43-3.3-.99-4.35-1-6.25-3.87-7.63-3.22-7.42-3.15,2.2.79,6.15,3.04,9.37,5.82,2.86,2.46,5.83,6.06,7.69,9.36-1.78-.52-4.12-1.45-5.74-2.52Z"/>
              <path class="cls-24" d="M160.06,127.86c-.02.37-.9-4.48-1.57-6.55.17,1.17.32,2.43.41,3.67.31,4.19.48,7.92.22,11.09,1.15-1.18,1.85-2.81,2.48-4.31-.04-.73-.52-5.05-1.06-8.95-.13.81-.39,3.4-.48,5.05Z"/>
              <path class="cls-24" d="M160.48,116.86c.1.87.14,1.75.15,2.63.34,1.41.68,3.42,1,5.74.55,3.9.83,9.12,1.22,12.07,1.26-1.15,1.03-8.75.47-14.78-.95-1.88-1.98-3.73-2.85-5.65Z"/>
              <path class="cls-24" d="M154.46,113.29c.4,1.05.7,1.99.91,2.68.8,2.69,1.29,5.49,1.45,8.29.09,1.57.03,3.53-.22,5.1.49-.05,1.12-1.12,1.46-2.24,0-1.43-.49-6.1-.88-9.12-.77-1.64-1.69-3.21-2.72-4.71Z"/>
              <path class="cls-24" d="M178.56,131.93c-.64-4.93-3.94-8.86-7.13-12.38.65,3.44.59,9.45-.12,10.92-.07.14-.09-.3-.13-.45.21,1.87.25,4.23.06,5.76.3-.01.65.05.94.1,0-2.28.1-5.44.4-7.06,1.01,2.02,1.77,4.13,2.22,6.33.51-.6.37-4.69.37-6.91,1.12.54,2.69,5.73,3.62,8.4.3-.63.46-2.15.24-4.49-.15.09-.43.01-.47-.23Z"/>
              <path class="cls-24" d="M165.22,117.7c.32,2.97.5,5.96.5,8.96,0,.33-1.05-1.27-1.34-1.93.11,1.29.2,2.76.28,4.36.2,1.8.63,4.36,1.25,6.3.7.3,1.55.58,2.34.7-.45-3.24-.55-6.53-1-9.77.99-.37,1.67,8.91,2.36,12.87.59-1.71.78-3.78.83-5.58.06-2.11,0-4.24-.2-6.34-1.66-5-3.64-8.01-5.02-9.57Z"/>
              <path class="cls-2" d="M107.85,95.01c-3.92-1.47-12.5-2.53-12.73-1.69,3.93.16,8.21.85,11.91,2.2,3.15,1.16,8.13,3.48,8.51,5.43-1.15-.26-5.91-1.71-8.38-1.41-2.17-2.76-12.42-4.88-12.68-4.12,2.62.47,5.58,1.28,8.08,2.18,1.25.44,4.03,1.71,4.74,4.06-1.99-1.28-4.9-2.36-7.21-2.6-2.57-.26-5.15-.44-7.73-.44-2.55,0-5.18.23-7.7-.14-2.97-.44-5.19-.82-6.92-1.77-.18.78,3.03,2.18,6.7,2.67,2.48.33,5,.39,7.49.4,2.5,0,5.01-.02,7.5.16,2.59.19,7.26,1.96,8.66,3.12.14-.75-.18-2.4-.39-2.81,1.79-.09,7.4,1.65,9.07,1.94.19-2.92-3.08-5-8.92-7.19Z"/>
              <path class="cls-2" d="M138.1,100.54c-6.45-2.87-13.87-4.86-20.58-6.98-.12,1.21,13.55,4.95,18.32,6.68-4.85,1.33-11.95-1.54-17.31-3.52-4.26-1.58-8.9-4.03-13.28-5.26-1.8-.51-5.29-1.53-5.57-.86,6.43,1.41,12.68,4.75,18.82,7.04,3.14,1.17,6.85,2.89,9.53,3.48,5.05,1.13,9.05.68,10.07-.58Z"/>
              <path class="cls-2" d="M68.88,84.45c.29,1.22.16,3.22-.2,4.66-.47-1.52-1.59-4.8-2.09-4.52.13.3.25.61.36.91-.14,2.07-.8,4.21-1.35,6.18-.43-1.18-1.18-3.67-1.55-3.44.04.16.09.32.13.48-.44.32-1.29,2.3-1.44,2.77-.36-1-.65-2.03-.92-3.06-.25.02-.1.6-.07.88-.94,1.14-1.45,2.48-1.68,3.91-.67-1.44-1.02-4.36-.55-6.91-.31-.06-.68,1.25-.79,1.95-.83.58-1.48,1.42-2.1,2.23.24-2.05.63-4.13,1.72-5.91-1.11.57-1.98,4.68-2.24,7-.02.17,1.84-1.76,2.54-2.55-.1,1.86.84,5.56,1.74,5.49.13-1.53.78-3.37,1.42-4.76.13.88,1.05,3.25,1.1,3.01.17-.77.71-2.66,1.38-3.63.32,1.12,1.27,3.98,1.36,3.77.74-1.78,1.51-4.48,1.57-6.6.41,1.19,1.44,4.34,1.56,4.07.8-1.78.96-5.88.09-5.92Z"/>
              <path class="cls-2" d="M117.07,131.81c-1.39-.01-3.32-.42-4.64-.91-1.64-.61-3.17-1.51-4.64-2.45-2.54-1.63-4.95-3.6-6.92-5.9-.07-.08.57.91.93,1.31,1.82,1.94,3.93,3.65,6.12,5.12,1.32.89,2.73,1.65,4.21,2.26,1.34.55,2.86.8,4.33.81.8,0,1.49-.23.6-.24Z"/>
              <path class="cls-2" d="M124.67,130.59c-3.47.17-6.69-1.9-9.29-4.01-.05-.04.47.53.74.75,1.13.92,2.29,1.79,3.6,2.47,1.46.76,3.35,1.47,5,.96.1-.03.05-.17-.04-.17Z"/>
              <path class="cls-2" d="M129.6,128.45c-1.93-.71-3.86-1.43-5.74-2.26-3.52-1.55-6.86-3.49-9.92-5.82-.09-.07.74.81,1.17,1.14,4.26,3.18,8.99,5.52,13.96,7.31.18-.12.35-.24.53-.36Z"/>
              <path class="cls-2" d="M131.33,127.2c-4.61-1.94-9.29-3.73-13.54-6.41-.08-.05.74.69,1.16.96,3.78,2.38,7.94,4.03,12.09,5.67.1-.07.19-.14.29-.22Z"/>
              <path class="cls-2" d="M143.88,123.63c.13.02.25.04.38.06-4.33-4.77-10.02-8.21-16-10.56-.59-.23-1.91-.57-1.83-.53,6.54,2.42,12.57,6.07,17.45,11.04Z"/>
              <path class="cls-2" d="M148.16,122.98c.22-.04.45-.08.67-.11-3.76-4.69-9.18-7.95-14.74-10.06-1.68-.64-2.63-.48-2.45-.44,6.23,1.7,12.35,5.81,16.52,10.6Z"/>
              <path class="cls-2" d="M169.5,132.87c.11,1.47.12,6.44.05,7.15.21-.07.52-.51.53-2.49,0-1.33.05-3.13-.06-4.45-.16-2.09-.59-4.12-.96-6.16-.39-2.12-.71-2.23-.69-2.13.49,2.67.92,5.38,1.13,8.09Z"/>
              <path class="cls-2" d="M166.31,130.31c-.09-1.47-.24-2.94-.36-4.41-.15-1.82-.41-1.96-.4-1.87.28,2.09.24,4.21.31,6.31.03,1.08.36,5.3.82,6.09.08.13.38.14.33-.05-.49-2.02-.64-5.01-.7-6.07Z"/>
              <path class="cls-2" d="M178.19,131.91c-.38-1.61-.94-3.16-1.58-4.68-.6-1.42-.87-1.5-.84-1.42.83,1.83,1.51,3.73,2.02,5.68.26,1.01.45,2.03.6,3.06.07.52.23,2.34.28,3.39,0,.1.17.13.21.02.25-.89-.44-5.01-.68-6.04Z"/>
              <path class="cls-24" d="M160.22,127.22c-.09-2.9-.44-5.8-.98-8.65-.25-1.32-.48-1.64-.47-1.55.67,3.35,1.01,6.76,1.08,10.17.03,1.59,0,3.2-.02,4.79-.01.76-.07,1.52-.17,2.27-.11.79-.47,1.57-.52,2.35-.01.2.23.26.35.12.43-.52.53-1.31.65-1.95.14-.82.18-1.65.19-2.48.03-1.69-.08-3.38-.13-5.07Z"/>
              <path class="cls-2" d="M104.16,184.09c-.24.24-.42.49-.78.55-.3.05-.66-.07-.95-.16-.07-.02-.09.08-.03.11.58.2,1.86.52,1.9-.43,0-.09-.09-.12-.15-.07Z"/>
              <path class="cls-2" d="M103.91,185.32c-.37.07-.67.36-1.04.46-.57.16-1.11.03-1.5-.43-.05-.05-.14.02-.09.08.31.41.74.63,1.25.65.46.02,1.28-.19,1.47-.65.02-.05-.02-.13-.09-.12Z"/>
              <path class="cls-2" d="M103.47,187.13c-.36.32-.5.69-1.07.61-.41-.06-.84-.35-1.09-.66-.06-.07-.17,0-.12.08.32.48.75.84,1.34.9.51.05,1.09-.33,1.09-.87,0-.06-.09-.1-.14-.06Z"/>
              <path class="cls-2" d="M102.23,193.08c-.94.38-1.87.92-2.63-.06-.06-.08-.21-.02-.18.08.41,1.38,2.19.95,2.92.12.06-.07-.03-.17-.11-.14Z"/>
              <path class="cls-2" d="M102.84,190.85c-.32.32-.73.54-1.19.54-.45,0-.81-.37-1.06-.7-.05-.07-.17-.01-.13.07.5,1.13,1.78,1.1,2.48.18.05-.07-.04-.15-.1-.09Z"/>
              <path class="cls-2" d="M101.68,196.49c-.43.25-.82.57-1.33.66-.65.12-1-.32-1.24-.86-.03-.07-.15-.06-.14.03.12,1.53,2.21,1.39,2.81.26.04-.07-.05-.13-.1-.09Z"/>
              <path class="cls-2" d="M101.58,198.38c-.88,1-2.28.01-2.86-.86-.05-.07-.17,0-.14.07.41.92,2.62,2.46,3.13.87.03-.08-.07-.15-.13-.08Z"/>
              <path class="cls-2" d="M100.71,202.62c-.58.63-1.19.73-1.95.34-.5-.25-.96-.68-1.29-1.13-.06-.08-.19,0-.16.09.46,1.2,3,2.7,3.54.78.02-.09-.08-.16-.15-.09Z"/>
              <path class="cls-2" d="M100.68,205.01c-.76.18-1.32.44-2.12.24-.7-.18-1.25-.71-1.67-1.28-.05-.06-.14,0-.11.07.68,1.24,2.76,2.36,3.97,1.12.05-.06-.01-.16-.08-.14Z"/>
              <path class="cls-2" d="M113.91,182.68c-.72.68-1.56.9-2.53.69-.07-.02-.1.09-.03.11.88.24,2.18.16,2.67-.73.04-.07-.06-.12-.11-.07Z"/>
              <path class="cls-2" d="M113.48,184.76c-.33.01-.62.15-.94.22-.53.12-1.08.06-1.52-.26-.06-.05-.14.04-.08.09.68.61,1.93.79,2.63.09.06-.06-.02-.15-.08-.14Z"/>
              <path class="cls-2" d="M113.15,185.98c-.76.51-1.67.84-2.36,0-.04-.05-.13.02-.09.08.64.84,1.83.75,2.53,0,.05-.05-.02-.13-.08-.09Z"/>
              <path class="cls-2" d="M112.37,189.62c-.53.15-.9.31-1.46.13-.4-.12-.75-.35-1.05-.65-.07-.07-.17.04-.12.11.53.78,2.01,1.62,2.8.69.09-.11-.02-.32-.17-.28Z"/>
              <path class="cls-2" d="M112,191.92c-.55.05-.99.09-1.51-.11-.47-.18-.9-.54-1.18-.95-.05-.07-.15,0-.11.07.46.84,1.91,1.77,2.84,1.12.06-.04.03-.13-.04-.13Z"/>
              <path class="cls-2" d="M111.57,193.42c-.8.67-1.87.34-2.58-.31-.06-.06-.16.04-.11.1.62.75,2.19,1.4,2.8.3.04-.06-.05-.14-.11-.09Z"/>
              <path class="cls-2" d="M111.12,196.24c-.4.09-.77.27-1.17.36-.67.13-1.27-.12-1.74-.59-.06-.07-.18.04-.12.11.74.9,2.21,1.03,3.1.23.06-.05-.02-.12-.07-.11Z"/>
              <path class="cls-2" d="M111.01,198.76c-1.04.9-2.23.75-3.28-.07-.08-.06-.17.05-.1.12.93.89,2.73,1.44,3.5.05.04-.07-.06-.15-.12-.1Z"/>
              <path class="cls-2" d="M110.64,200c-.56.27-.94.59-1.61.61-.75.02-1.45-.43-1.93-.98-.05-.06-.14.03-.1.09.41.68,1.05,1.05,1.83,1.16.66.09,1.6-.14,1.91-.77.03-.06-.04-.14-.11-.11Z"/>
              <path class="cls-2" d="M110.48,201.25c-.41.15-.75.43-1.18.56-.55.16-1.17.07-1.66-.22-.06-.03-.12.06-.07.1.23.17.53.29.86.37,0,.02.02.03.05.03.01,0,.02,0,.03-.01.79.15,1.7-.02,2.09-.71.04-.07-.05-.14-.11-.12Z"/>
              <path class="cls-2" d="M64.76,208.38c-.41-1.01-1.31-1.3-2.32-1.07-.08.02-.05.16.03.14,1.15-.23,1.93.26,2.18,1.4.19.86-.06,1.69.03,2.54.01.12.2.2.26.06.36-.87.16-2.22-.18-3.07Z"/>
              <path class="cls-2" d="M66.57,208.87c-.2-.82-.81-1.38-1.58-1.64-.07-.02-.11.1-.04.13.72.3,1.19.82,1.4,1.57.22.79-.18,1.45-.22,2.21,0,.08.11.16.17.09.54-.58.45-1.64.27-2.35Z"/>
              <path class="cls-2" d="M70.98,207.42c-.05-.05-.13.03-.08.08.94.91,1.43,2.25.84,3.46-.03.06.04.13.1.09,1.12-.88-.11-2.92-.86-3.63Z"/>
              <path class="cls-2" d="M75.68,207.72c-.07-.04-.12.07-.05.1.83.48,1.78,2.74.48,3.18-.07.02-.05.14.02.13,1.63-.23.43-2.93-.45-3.41Z"/>
              <path class="cls-2" d="M82.04,208.25c-.09-.03-.15.09-.06.13,1.09.53.95,1.75.29,2.55-.05.06.01.15.08.12,1.22-.5.79-2.44-.31-2.81Z"/>
              <path class="cls-2" d="M85.68,208.41c-.08-.08-.18.05-.13.13.37.58.86,1.75.1,2.23-.08.05-.02.17.07.16,1.32-.19.58-1.92-.03-2.52Z"/>
              <path class="cls-2" d="M73.4,205.19c-.17-.79-.64-1.51-1.33-1.95-.06-.04-.11.06-.05.1.65.44,1.03,1.12,1.17,1.89.07.38.03.78-.07,1.15-.07.24-.21.42-.24.67,0,.08.08.14.15.1.61-.35.49-1.39.36-1.97Z"/>
              <path class="cls-2" d="M73.74,203.4c-.06-.06-.15.04-.09.1,1.03,1.18.87,2.61.22,3.92-.03.07.06.13.11.07,1.02-1.13.79-3.05-.24-4.1Z"/>
              <path class="cls-2" d="M79.78,204.35c-.07-.05-.16.04-.09.1,1.13.9,1.61,2.83.4,3.82-.06.05-.02.15.06.13,1.75-.57.65-3.32-.37-4.04Z"/>
              <path class="cls-2" d="M88.97,205.66c-.07-.07-.19.05-.12.12.73.85.61,1.93.23,2.9-.04.1.08.15.15.09.85-.83.5-2.34-.25-3.11Z"/>
              <path class="cls-2" d="M70.74,215.96c-.2-.84-.86-1.51-1.65-1.82-.09-.04-.16.11-.06.15.72.31,1.19.83,1.41,1.59.22.75-.2,1.26-.24,1.95,0,.09.1.16.18.11.6-.4.52-1.35.37-1.97Z"/>
              <path class="cls-2" d="M72.25,214.07c-.07-.07-.16.05-.09.11.48.47.93.96,1.23,1.57.34.71.06,1.35-.09,2.05-.02.1.11.12.16.07,1.19-1.27-.25-2.93-1.2-3.8Z"/>
              <path class="cls-2" d="M74.64,216.11c-.08-.68-.41-1.39-.98-1.79-.05-.04-.15.02-.1.09.44.52.71,1.05.79,1.73.07.56-.19,1.09-.12,1.63.01.09.11.1.16.04.38-.4.31-1.18.25-1.68Z"/>
              <path class="cls-2" d="M80.08,215.63c-.17-.61-.63-1.22-1.15-1.58-.08-.06-.19.05-.13.13.36.45.69.87.91,1.41.23.56.02.97-.06,1.51-.01.08.08.12.15.08.51-.31.42-1.06.28-1.55Z"/>
              <path class="cls-2" d="M85.22,212.71c-.08,0-.11.14-.02.17.49.14.81.56,1.06.98.17.3.27.63.3.97.03.36-.14.62-.23.94-.02.08.08.11.13.08,1.08-.63-.1-3.26-1.24-3.14Z"/>
              <path class="cls-2" d="M89.83,211.69c-.07.02-.07.15,0,.17.7.21,1.16.48,1.48,1.16.32.68.27,1.48.12,2.19-.02.08.1.13.15.07.84-1.12,0-4.12-1.75-3.59Z"/>
              <path class="cls-2" d="M76.87,200.43c-.05-.05-.13.04-.08.08.89.72.9,1.98.69,3.01-.02.08.1.1.12.03.23-1.05.18-2.39-.73-3.12Z"/>
              <path class="cls-2" d="M78.12,200.75s-.12.03-.07.08c.92.85.63,2.47-.02,3.39-.04.06.05.12.1.07.81-.85.89-2.71,0-3.53Z"/>
              <path class="cls-2" d="M83.53,201.44c-.06-.03-.13.06-.07.1,1.04.76,1.18,2.23.69,3.34-.08.18.16.29.26.13.62-1.01.21-3.02-.89-3.58Z"/>
              <path class="cls-2" d="M90.12,202.7c-.06-.03-.11.06-.05.09,1.09.5.95,1.88.75,2.85-.01.06.08.1.11.04.4-.95.24-2.52-.81-2.98Z"/>
              <path class="cls-2" d="M82.37,199.09c-.05-.06-.15.03-.1.09.21.28.37.57.46.91.1.4-.02.7-.16,1.06-.03.07.06.16.12.1.64-.6.15-1.63-.32-2.16Z"/>
              <path class="cls-2" d="M86.24,200.55c-.07-.54-.41-1.01-.9-1.25-.09-.04-.14.09-.06.14.38.24.6.63.7,1.06.1.42-.07.73-.19,1.11-.02.08.05.14.12.1.37-.24.38-.78.33-1.16Z"/>
              <path class="cls-2" d="M86.77,199.48c-.05-.06-.14.03-.1.09.21.33.37.69.47,1.07.12.5-.07.92-.25,1.37-.03.07.06.16.12.1.82-.7.35-1.96-.24-2.63Z"/>
              <path class="cls-2" d="M110.33,215.32c-.73.18-1.17.75-1.43,1.43-.24.61-.32,1.62.22,2.09.06.06.15-.01.15-.08-.06-.57-.22-1.03-.12-1.61.13-.72.57-1.35,1.23-1.68.09-.04.05-.16-.05-.14Z"/>
              <path class="cls-2" d="M108.86,214.46c-1.55.26-2.61,2.74-1.14,3.74.08.05.17-.05.1-.12-1.07-1.09-.2-3,1.07-3.49.07-.03.05-.15-.02-.13Z"/>
              <path class="cls-2" d="M120.02,206.52c-1.66-.16-2.84,1.75-2.43,3.24.02.08.14.05.14-.03-.15-1.47.74-2.94,2.29-3.06.09,0,.1-.15,0-.15Z"/>
              <path class="cls-2" d="M116.93,204.97c-1.24.28-2.4,1.87-1.61,3.07.05.07.14,0,.11-.06-.57-1.17.36-2.59,1.53-2.9.07-.02.04-.13-.03-.11Z"/>
              <path class="cls-2" d="M106.11,212.5c-1.23-.02-2.77,2.25-1.93,3.31.05.06.14,0,.1-.06-.59-1.1.69-2.96,1.84-3.12.08-.01.08-.13,0-.13Z"/>
              <path class="cls-2" d="M103.66,211.79c-1.01.38-1.45,1.58-1.61,2.56-.01.07.1.1.11.03.21-.92.58-2.09,1.53-2.46.08-.03.04-.16-.04-.13Z"/>
              <path class="cls-11" d="M2,94.48c-.59-1.36-.31-2.79-.28-4.17.03-1.59-.45-2.88-1.61-3.94-.29,5.31-.04,10.57,1.75,15.65.29.83.67,1.63,1.12,2.38.29.49.49,1.34,1.17,1.23.74-.12,1.28-.77,1.41-1.55.52-2.93,1.29-5.82,1.37-8.81-.27-.58-.68-.76-1.26-.47-.17.44-.25.88-.05,1.32-.39-.83.34-1.73-.1-2.56-.4-.49-.76-1.09-1.55-.68-.95,2.23-.89,4.56-.78,6.68-.51-1.5-.06-3.48-1.19-5.08Z"/>
              <path class="cls-26" d="M5.63,92.75c-.12.31-.24.62-.36.93,0,.96,0,1.92,0,3.02.64-.57.38-1.23.57-1.76.08-.45.16-.9.24-1.34-.37-.16-.34-.54-.45-.84Z"/>
              <g>
                <path class="cls-18" d="M43.02,0c2.19.96,4.54,1.61,6.4,3.23.46.4.89.82,1.28,1.29.25.3.48.72.07,1.07-.42.35-.72.01-1.02-.27-1.05-.95-2.16-1.83-3.44-2.46-1.04-.51-2.14-1.02-3.29-.78-1.84.37-2.75-.47-3.25-2.07h3.26Z"/>
                <path class="cls-2" d="M48.12,92.45c.54,0,1.07,0,2.04,0-2.23,1.15-4.36,1.67-6.1,3.86,2.44-1.22,4.16-2.92,6.94-2.63-2.65,1.79-4.95,3.52-5.89,6.76,1.25-.77,1.33-2.32,2.86-2.81-.94,2.13-1.28,4.14-1.07,6.56,1.22-1.49,1.71-3.25,3.27-4.39-.27,2.03-.53,3.9-.78,5.77.11.03.22.06.33.09.45-1.21.91-2.42,1.56-4.17.06,2.81.12,5.02,1.32,7.53.8-2.32,1.47-4.27,2.31-6.71,0,1.55,0,2.54,0,3.54-.24,1.2-.16,2.38-.02,3.77,1.18-.56.86-1.52,1.06-2.29.19-.74,0-1.25.6-2.23.05-.04.13-.07.15-.13.06-.16.26-.26.28-.18.27,1.03.25,2.18,1.26,2.89,1.16.35,3.39,5.46,2.89-.87.12-.17.2-.36.23-.56-.09-1.99-.66-3.93-.69-5.85.51,1.75,1.33,3.41,2.72,4.75.19.1.39.15.61.14.33-.07.56-.28.75-.54.69-1.11.18-2.21-.03-3.32-.31-1.63-.59-3.26-.87-4.5.53,1.83.99,4.14,2.4,6.05.35.17.59,0,.78-.28.49-1.21-.16-2.32-.3-3.45.19.82.72,1.32,1.56,1.49.33-.02.56-.16.66-.49.03-.95-.89-1.47-1.1-2.34.58-.34,1,.15,1.48.26.77.17,1.68.68,2.24-.1.55-.77-.18-1.52-.56-2.19-.56-.99-1.26-1.89-1.88-2.88.41-.17.68.1.98.16,1.34.23,1.71-.23,1.22-1.54-.24-.63-.67-1.16-1.03-1.73-.33-.51.02-.72.4-.92.17-.11.28-.27.35-.46.08-.57-.18-.96-.64-1.25-.63-.29-1.31-.28-1.98-.26-.74.02-1.56,0-1.97.75-.46.85.36,1.32.73,1.91-1.49-.87-1.51-.89-.81-2.31,1.02-2.05,1.66-4.08.64-6.37-.44-.99.02-2.13-.05-3.21-.41-1.12-.98-1.2-1.65-.22-.63.94-1.33,1.85-1.58,3,0,.2-.01.45.12.58,2.03,1.9,1.17,3.88.17,5.84-.83,1.62-1.77,3.18-2.89,4.61-1.28,1.64-2.03,1.76-4,.95-1.7-.7-2.86-2.24-4.63-2.79-.52.07-1.01.17-1.29.69-.42.68-.7,1.49-1.76,1.46-.73-.02-1.47.09-2.2.14-.02.77.43.53.83.39Z"/>
                <path class="cls-25" d="M70.86,29.68c1.95-3.24,3.54-6.7,5.78-9.76.86-1.18.38-1.89-.76-2.33-1.73-.67-3.57-.81-5.39-.82-1.11,0-1.76-1.68-2.42-2.69-1.3-2.03-3.25-3.24-5.72-3.4-.63-.04-1.8-.48-1.79.47,0,.81.41,2.03,1.86,1.96,1.95-.09,3.7,1.74,5.2,3.45-1.52.45-2.79-.6-4.24-1.33-2.56-1.28-5.88-.27-8.54.87-.24-4.05-.67-4.27-2.88-7.5-2.19-3.19-4.68-2.95-8.64-3.37-3.56-.37-7.73,1.14-9.7,3.37-.04.06,0,1.23,0,0-2.74,2.82-2.94,3.12-4.08,7.23-.55,1.97-.71,2.88.19,4.9.59.39,1.14-.4,1.55-1,.67-2.03.22-1.8.35-3.81,1.86,2.58-1.99,3.63-1.74,4.79.44.17,2.2-.43,2.62-.65.5-1.62-.86-.97-1-1.81-.54-3.17,1.45-3.92,3.42-7.39.57-1.01-.14.34.67-.48,2.04-2.07,2.01-2.71,6.29-2.81,3.57-.08,6.74-.05,8.5,2.93,1.05,1.76,2.46,1.77,2.94,3.76.39,1.63.63,3.21-.82,4.53-.4.36-.58.91-.47,1.5.33.49.8.69,1.38.7.86-.13,1.38-2.04,2.01-2.53,1.38-1.07,2.92-1.71,4.68-1.65,2.93.09,4.77,3.15,4.94,6.08.05.94-.08,1.9.19,2.83.28.63,2.02,1.05,2.79.9,1.63-2.07,1.09-4.3.48-6.54-.13-.48-2.07-1.01-1.56-1.46.47-.41,1.02.06,1.47.34.49.31.96.51,1.44-.01.78-.85,1.75-.54,2.66-.37,1.28.23,1.7.88,1.07,2.16-.93,1.88-2.03,3.67-2.98,5.54-.37.72-.8,1.42-.88,2.26.08.68.25,1.28,1.14,1.16Z"/>
                <path class="cls-11" d="M29.81,20.27c-.32.47.42.49-.08.48.11,1.69.89,3.17,1.86,4.42,1.15,1.47-.63,2.21-1.74,3.27-8.03,7.68-14.78,16.37-20.07,26.16C4.43,64.53.79,75,.1,86.36c.78,1.8,1.07,3.68,1.01,5.64-.03.88-.25,1.9.73,2.53.9-.39.73-1.24.72-1.93-.26-20.69,8.06-38.12,20.48-54,2.22-2.84,4.96-5.19,7.2-8.01,1.06-1.34,2.26-1.76,3.85-.64,1.21.85,2.64,1.38,4.07,1.83.44.14,1.01.4,1.3-.1.37-.64-.28-.94-.68-1.26-.42-.34-.91-.81-1.39-1.06-3.25-1.68-4.92-4.05-6.09-7.47-.2-.6-.6-1.46-1.47-1.62Z"/>
                <path class="cls-5" d="M31.74,19.9c-.41.01-.81.03-1.22.04-.24.28-.28.62-.19.95,1.49,5.47,9,12.23,15.37,11.79,1.63-.11,3.06-.53,4.28-1.58.66-.57,1.14-.6,1.61.22,1.22,2.14,3.26,3.15,5.44,4,1.05.41,2.58.77,2.44,2.05-.13,1.16-1.69.75-2.62.94-2.4.48-4.86.09-7.29.25-.52.13-1.13.16-1.14.91,1.24.91,2.84-.07,4.1.76.64.02,1.28-.01,1.91.06.76.08.2.52.17.81.33.46.77.68,1.34.65,1.38-.73,2.9-1.06,4.37-1.56,2.11-.72,2.53-1.45,1.76-3.45-.4-1.05-.07-1.45.79-1.88,1.34-.66,2.57-1.51,3.55-2.66.39-.46.94-1.04.39-1.59-.47-.48-.99.1-1.4.41-2.44,1.79-5.07,2.79-8.13,2.05-.69-.12-1.37-.29-1.9-.64.7.41,1.56.55,2.41.73,3.93.43,8.34-1.15,9.99-4.47.35-.71.81-1.43.32-2.28-.59,0-2.3-.31-2.54-.82-.91.11-.85.95-1.11,1.52-1.48,3.28-4.81,4.72-8.07,3.46-3.07-1.19-4.58-4.82-3.41-8.15.19-.55.73-1.02.38-1.7-.41-.13-.83-.26-1.24-.38-1.49.16-1.34,1.42-1.62,2.4.15,1.21.08,2.41-.07,3.61-.51,2.94-4.64,4.63-7.89,3.86-4.25-1-6.76-4.01-8.82-7.56-.56-.97-.72-2.23-1.94-2.73Z"/>
                <path class="cls-12" d="M55.85,41.51c-.42-.13-.84-.27-1.26-.4-7.94,10.41-11.8,22.02-10.18,35.17.67,5.45,2.92,10.26,6.84,14.19.48-.05.99-.01,1.31-.5.18-.53-.1-.92-.39-1.3-6.49-8.51-7.08-18.06-4.93-28.08,1.31-6.07,4.04-11.49,7.56-16.56.53-.75,1.34-1.41,1.05-2.52Z"/>
                <path class="cls-17" d="M69.91,75.16c-.18-.31,1.39-4.01,1.21-4.33-1.31.96-3.95,3.14-4.95,4.54-.1-1.75-.06-1.38-.1-1.98.05-.4.35-.91-.43-.91-.31,1.49-.62,2.99-.93,4.48-.51-2.25-.47-4.49-.45-6.75-1.11,2.43-.72,4.97-.33,8.01-1.76-2.52-2.65-4.91-3.23-7.42-1.7-7.37-.32-14.5,1.77-21.56.11-.39.22-.78.33-1.16.23-.86,0-1.38-.99-1.33-.57.33-.83.89-1.01,1.47-2.29,7.17-3.57,14.44-2.22,21.98.55,3.11,1.73,5.97,3.35,8.66.46.77.87,1.73,2.03,1.76.65-1.01,1.33-2.01,1.94-3.05.45-.77.56.02.81.13,1.24-.81,1.2-2.58,2.11-3.63.18-.61,1.33,1.84,1.11,1.09Z"/>
                <path class="cls-17" d="M61.93,46.81c.52.27.72.74.86,1.27,2.19-6.35,5.05-12.41,8.07-18.39-.55-.23-.78-.67-.83-1.23-.71-.04-.84.58-1.09,1.02-2.76,4.8-4.95,9.86-6.87,15.05-.27.72-.74,1.49-.15,2.29Z"/>
                <path class="cls-5" d="M65.64,72.48c.14.3.29.61.43.91.53-1.33,1.06-2.67,1.59-4-1.23.69-1.77,1.8-2.02,3.09Z"/>
                <path class="cls-5" d="M48.12,92.45c-.28-.13-.56-.26-.83-.39-1.3.16-2.54.46-3.48,1.59,1.44-.4,2.87-.8,4.31-1.2Z"/>
                <path class="cls-1" d="M61.93,46.81c1.58-5.52,4.15-10.61,6.69-15.72.45-.89.94-1.76,1.41-2.64,1.41-2.62,2.74-5.28,4.24-7.84.86-1.47.34-2.09-1.05-2.42-.72-.17-1.46-.23-2.2-.35-.98-.15-1.88-.17-1.77,1.48-.72-1.98-2.11-1.56-3.63-1.39,1.61,2.7,3.33,5.52,2.44,8.47-1.5,4.72-5.5,6.6-10.62,6.54-.42-.18-.47,0-.35.36,4.24.69,5.37.39,9.87-2.72-1.64,2.53-3.67,3.8-6.17,4.52.03.2.01.4.09.55,1.81,3.08,1.54,3.77-2.03,4.48-1.16.23-2.22.43-3,1.38-3.49,4.99-6.64,10.16-8.4,16.06-2.28,7.63-2.68,15.27-.25,22.95,1.12,3.54,2.93,6.66,5.36,9.44,1.63,1.4,3.29,2.74,5.37,3.47,1.16.41,2.05.27,2.89-.68,2.11-2.41,3.59-5.16,4.74-8.15.76-1.98-.95-2.72-1.61-3.99-3.22-3.72-4.74-8.17-5.19-12.95-.68-7.19.62-14.13,3.18-20.85Z"/>
                <path class="cls-4" d="M70.09,72.41c-1,1.03-2.79,4.02-3.39,5.29-.26,1.56-.68,3.01.31,4.64.75,1.24-.16,2.74-.67,4.05-1.21,3.13-1.24,3.12,2.43,4.45-.87-1.09-1.53-1.92-2.27-2.85,1.32-.67,2.66-.44,3.96-.48.15.15.33.24.52.3.81.26,1.85.46,2.22-.32.45-.93-.71-1.26-1.29-1.75-.1-.09-.23-.14-.35-.21q-2.24-1.34-.12-2.99c.11-.08.16-.21.21-.34,1.72-.85,2.14-1.05,4.33-2.13-2.32-.03-2.61.17-4.3.52-.74-.38-1.37.23-2.24.23.4-.99,1.43-1.37,1.85-2.2,2.75-2.39,6.23-3.43,9.39-5.12-3.67.35-7.05,1.57-10.25,3.38-.4-.16-.76.05-1.27.2.12-.84.58-1.57.44-2.38-.14-.36,1.06-2.46.49-2.28Z"/>
                <path class="cls-15" d="M59.83,95.73c1.13.89,1.41,2.3,2.5,3.49.03-2.2.02-4.13.42-6.25-2.12,2.7-4.43,2.24-7.11,1.18-1.85-.74-3.5.6-4.84,1.91-.61.6-1.22,1.25-1.59,2.48,1.89-1.41,3.49-2.8,5.91-3.41-1.69,3.03-2.46,5.95-2.4,9.08.99-2.33,1.45-4.94,3.77-6.78.72,3.06,1.31,6,3.28,8.67-.44-3.57-1.84-6.87.06-10.37Z"/>
                <path class="cls-14" d="M71.64,82.19c-1.08.53-2.81.74-2.96,1.8-.15,1,1.66,1.23,2.52,1.91.57.45,1.18.84,2.04,1.44-1.16.06-1.98.11-2.81.15.14.39.29.78.43,1.17.68.16,1.36.32,2.03.48,1.33-.18,2.55.79,4.01.28-1.2-1.63-2.55-3.07-4.33-4.14-.88-.53-1.09-1.82-.43-1.73.93-.2,5.23-3.71,4.89-4.03-.27-.69-4.34,2.73-5.41,2.66Z"/>
                <path class="cls-15" d="M68.88,95.71c-1.4-1.78-2.79-3.57-4.2-5.36q-1.9,1.88.2,3.31c1.21.82,2.44,1.6,3.66,2.4.11-.12.22-.23.33-.35Z"/>
                <path class="cls-24" d="M2,94.48c.05,2.17.47,4.29.92,6.4.05.24.2.45.51,1.11.26-3.35.49-6.24.72-9.13.79-.95.76-2.13.91-3.26,1.25-9.6,3.52-18.91,7.93-27.6.46-.91,1.01-1.76,1.51-2.64.35-.74,3.01-3.58,3.26-4.37,3.27-6.43,8.19-7.61,14.1-13.46,2.57-1.2,3.39-2.32,6.2-3.17.83-.07,1.61-.33,2.4-.55,2.76-.8,5.55-1.48,8.21-1.86-1.42.59-3.44,0-4.77,1.52.17.92.95.82,1.59.93,1.4.23,2.82.3,4.21.61,3.12.06,6.23.05,9.33-.39,1.48-.21,2.13-.71.88-2.13-.66-.75-1.37-1.24-2.32-1.53-2.9-.87-5.41-2.22-6.31-5.46-4.5,3.22-10.04,1.96-10.04,1.96-2.33-.15-6.08-1.02-7.76-2.48-1.11-.96-1.68-.55-2.48.23-10.84,10.64-19.29,22.85-24.45,37.21-3.1,8.61-5.01,17.13-4.55,26.35.02.47.03,1.26,0,1.73Z"/>
                <path class="cls-27" d="M50.88,22.63c.26-.84.44-1.73,1.21-2.3,2.13-3.23,1.69-4.42.42-7.65-1.52-3.87-3.08-3.88-7.13-5.21-5.25-1.72-9.78.87-11.58,3.73-2.87,3.86-2.77,3.44-2.86,7.83.11.52.73,3.01.84,3.54,1.52,3.28,1.33,3.46,4.3,5.71,3.09,2.9,10.97,2.56,13.85.72.75-.68,1.24-1.41.95-2.47-.45-.63.15-1.49-.42-2.09"/>
                <path class="cls-16" d="M53.33,20.71c-1.7,2.54-1.87,5.18-.24,7.77,1.45,2.31,3.65,3.35,6.38,3,3.47-.44,6.58-2.69,7.39-5.9,0-.07.01-1.37.02-1.43.33-2.88-2.02-5.98-4.06-7.22-2.48-1.51-5.37-1.08-7.98,1.21,0,0-.66.89-1.51,2.57Z"/>
                <path class="cls-2" d="M71.28,78.61c-1.42.64-2.44,1.63-3.12,3.55,1.4-.63,2.46-1.1,3.51-1.57-.07-.35-1.18-.1-1.25-.45-.06-.31.92-1.22.86-1.52Z"/>
                <path class="cls-2" d="M69.33,75.28c-.29.92-.67,1.49-1.09,2.83.93-.53,1.56-.89,2.18-1.25-.15-.6-1.09-.12-.45-1.81.11-.29-.15-.6-.22-.91-.34.65-.2.33-.42,1.13Z"/>
                <path class="cls-1" d="M57.09,33.3c.12-.12.24-.24.35-.36-1.01-.39-2.02-.78-3.03-1.18.7.96,1.59,1.44,2.68,1.54Z"/>
                <path class="cls-1" d="M51.85,39.61c-1.49-1.12-.41-4.08-2.08-3.8-.87.14-7.67,1.78-8.53,1.76-.86-.55-3.76,1.52-4.45,1.83-7.44,3.33-13.52,8.38-18.43,14.86-.9,1.18-1.92,2.29-2.26,3.8-10.83,16.09-11.2,40.41-11.32,41.2-.16,1.07,11.29-37.48,12.24-37.84,3.95-6.6,8.77-12.38,15.4-16.48,4.36-2.7,12.51-4.68,19.43-5.34Z"/>
                <path class="cls-29" d="M38,37.91c-9.62,3.99-17.04,10.62-22.89,19.12-.3.64-2.6,4.63-2.9,5.27.39.82.31.56.99,1.37,1.04-2.25,1.43-2.72,3.12-5.4,3.68-6.5,8.96-11.45,15.16-15.46,2.37-1.54,4.83-2.96,7.58-3.77.95-.73,2.14-.86,3.21-1.28-.48-1.1-1.3-.34-1.97-.37-.77.17-1.53.35-2.3.52Z"/>
                <path class="cls-5" d="M40.3,37.39c.63.26,1.41-.25,1.97.37.58-.1,1.15-.2,1.73-.3,1.66-.94,3.64-.76,5.76-1.65-3.52.07-6.56.43-9.47,1.59Z"/>
                <path class="cls-25" d="M52.51,40.23c-1.1-1.56-2.73-.48-4.08-.82-.54-.5-1.18-.42-1.83-.32-5.98,1.21-11.6,3.31-16.6,6.87-5.63,4.01-9.9,9.21-13.31,15.17-1.2,1.96-2.19,4.01-3.15,6.09-.13.41-.18.82-.19,1.25.04.65-1.69,4.36-.97,4.71,1.34-.19,1.55-1.93,3.05-5.24,6.5-15.17,18.69-27.46,37.08-27.72Z"/>
              </g>
              <ellipse class="cls-5" cx="39.09" cy="23.06" rx="2.82" ry="4.79"/>
              <ellipse class="cls-5" cx="57.94" cy="26.89" rx="2.21" ry="3.22"/>
              <path class="cls-5" d="M13.48,63.1c.25-.56.5-1.12.75-1.67-.19-.82.97-1.65-.02-2.47-2.97,4.35-4.71,9.26-6.27,14.22-2,6.41-3.17,12.99-3.8,19.67.37.27.39,2.57.76,2.84.11-.16.16-2.32.45-3.86.96-10.32,3.37-19.42,8.13-28.73Z"/>
              <path class="cls-11" d="M6.3,93c-.02.13,0,0-.22,1.23-.32,1.76-.41,2.27-.41,3.44.37.11.9-2.52,1.26-2.41.82-3.39,1.6-6.79,2.46-10.17,1.2-4.71,2.56-9.37,4.54-13.83.6-1.22.69-1.87,1.69-3.73-.57-.45-.43-2.63-.7-3.17-1.45,3.17-1.83,4.42-2.1,5.03"/>
            </g>
          </g>
          <path class="cls-2" d="M49.58,35.07c-1.33-.82-2.62-.24-2.46-.22,1.62.23,2.71,1.2,3.29,2.83.06.18.9-1.54-.83-2.61Z"/>
          <path class="cls-9" d="M74.71,115.69c.61.51,1.22,1.02,1.84,1.52.12.1.25.17.41.17.14,0,.32-.06.41-.17.2-.22.25-.62,0-.83-.61-.51-1.22-1.02-1.84-1.52-.12-.1-.25-.17-.41-.17-.14,0-.32.06-.41.17-.2.22-.25.62,0,.83h0Z"/>
          <path class="cls-9" d="M78.98,112.77c.59,1.14,1.75,2.01,3.03,2.21.3.05.64-.08.72-.41.06-.28-.09-.67-.41-.72-.14-.02-.27-.05-.41-.09s-.26-.1-.4-.14c.03,0,.1.04.03.01-.04-.02-.07-.03-.11-.05-.06-.03-.12-.06-.18-.09-.12-.07-.24-.14-.35-.22-.03-.02-.05-.04-.08-.06.05.03.07.06,0,0-.05-.04-.1-.09-.15-.13-.1-.09-.2-.19-.29-.3-.02-.03-.04-.05-.06-.08-.05-.06-.03-.04,0,0-.03-.06-.08-.11-.12-.16-.08-.12-.16-.25-.22-.38-.14-.27-.55-.38-.8-.21-.28.18-.36.51-.21.8h0Z"/>
          <path class="cls-9" d="M83.97,108.21l2.78,1.47c.27.14.65.08.8-.21.14-.27.08-.65-.21-.8l-2.78-1.47c-.27-.14-.65-.08-.8.21-.14.27-.08.65.21.8h0Z"/>
          <path class="cls-9" d="M78.17,123.45c.82.6,1.64,1.2,2.46,1.81.25.18.66.05.8-.21.16-.31.05-.61-.21-.8-.82-.6-1.64-1.2-2.46-1.81-.25-.18-.66-.05-.8.21-.16.31-.05.61.21.8h0Z"/>
          <path class="cls-9" d="M83.03,119.64c1.13,1.58,2.68,2.78,4.5,3.47.3.11.64-.12.72-.41.09-.33-.11-.61-.41-.72-1.48-.56-2.88-1.63-3.8-2.93-.18-.26-.51-.38-.8-.21-.25.15-.39.54-.21.8h0Z"/>
          <path class="cls-9" d="M88.87,114.59c.93.59,1.86,1.19,2.78,1.78.26.17.66.06.8-.21.15-.29.07-.62-.21-.8-.93-.59-1.86-1.19-2.78-1.78-.26-.17-.66-.06-.8.21-.15.29-.07.62.21.8h0Z"/>
          <path class="cls-9" d="M93.14,107.97c.95,1.16,2.54,1.81,4.03,1.64.3-.04.6-.24.59-.59-.01-.29-.26-.62-.59-.59-.16.02-.33.03-.49.03-.07,0-.15,0-.22,0-.05,0-.09,0-.14-.01-.01,0-.12-.01-.06,0,.07,0-.07-.01-.09-.01-.04,0-.07-.01-.11-.02-.08-.02-.16-.04-.24-.06-.16-.04-.32-.1-.47-.16-.09-.03.07.03-.01,0-.03-.02-.07-.03-.1-.05-.07-.04-.15-.07-.22-.11-.14-.08-.28-.17-.42-.26-.03-.02-.06-.04-.01,0-.04-.03-.07-.06-.11-.09-.06-.05-.11-.1-.16-.15-.13-.12-.24-.25-.35-.38-.19-.24-.63-.22-.83,0-.23.25-.21.57,0,.83h0Z"/>
          <path class="cls-9" d="M86.48,102.9c1.17.8,2.53,1.26,3.94,1.38.31.03.6-.29.59-.59-.02-.34-.26-.56-.59-.59-.3-.03-.51-.06-.84-.13-.31-.07-.61-.16-.91-.26s-.48-.19-.79-.34c-.28-.15-.55-.31-.81-.49s-.66-.06-.8.21c-.16.3-.06.62.21.8h0Z"/>
          <path class="cls-9" d="M98.67,105.76c.92,0,1.83,0,2.75,0,.31,0,.6-.27.59-.59s-.26-.59-.59-.59c-.92,0-1.83,0-2.75,0-.31,0-.6.27-.59.59s.26.59.59.59h0Z"/>
          <path class="cls-9" d="M89.35,127.1c.24.05.47.13.69.22l-.14-.06c.31.13.59.3.85.5l-.12-.09c.1.07.19.15.27.23.22.21.61.24.83,0s.24-.61,0-.83c-.58-.54-1.3-.93-2.08-1.1-.3-.07-.65.09-.72.41-.07.3.09.65.41.72h0Z"/>
          <path class="cls-9" d="M91.6,120.44c1.76,1.07,3.71,1.82,5.73,2.22.31.06.63-.09.72-.41.08-.29-.1-.66-.41-.72-1.93-.38-3.77-1.09-5.45-2.1-.65-.39-1.24.62-.59,1.01h0Z"/>
          <path class="cls-9" d="M96.72,124.54c.76.88,1.86,1.49,3.02,1.66.16.02.3.03.45-.06.12-.07.24-.21.27-.35.06-.28-.08-.67-.41-.72-.25-.04-.5-.09-.75-.17-.06-.02-.13-.04-.19-.07-.03-.01-.05-.02-.08-.03-.13-.05.07.03,0,0-.12-.06-.24-.11-.36-.17-.11-.06-.22-.12-.32-.19-.06-.04-.11-.07-.16-.11-.02-.02-.05-.04-.07-.05-.06-.04.08.07,0,0-.2-.17-.39-.35-.57-.55-.2-.23-.62-.22-.83,0-.23.25-.21.58,0,.83h0Z"/>
          <path class="cls-9" d="M98.1,116.31c1,.55,1.99,1.09,2.99,1.64.27.15.65.07.8-.21s.08-.64-.21-.8c-1-.55-1.99-1.09-2.99-1.64-.27-.15-.65-.07-.8.21s-.08.64.21.8h0Z"/>
          <path class="cls-9" d="M100.97,111.55s.04,0,.06,0l-.16.02c.18-.02.36-.02.54,0l-.16-.02c.19.03.37.08.55.15l-.14-.06c.17.07.32.16.47.27l-.12-.09c.08.06.15.12.21.19.22.22.62.23.83,0s.23-.59,0-.83c-.31-.31-.69-.54-1.1-.67s-.86-.15-1.3-.08c-.14.02-.28.16-.35.27-.07.13-.1.31-.06.45s.13.28.27.35c.15.08.29.08.45.06h0Z"/>
          <path class="cls-9" d="M107.51,106.67c1.02.5,2.04,1,3.07,1.51.27.13.65.08.8-.21.14-.26.08-.66-.21-.8-1.02-.5-2.04-1-3.07-1.51-.27-.13-.65-.08-.8.21-.14.26-.08.66.21.8h0Z"/>
          <path class="cls-9" d="M117.61,106.97c1.31-.01,2.57.19,3.81.61.3.1.64-.12.72-.41.09-.32-.11-.62-.41-.72-1.33-.44-2.73-.66-4.13-.65-.32,0-.59.27-.59.59s.27.59.59.59h0Z"/>
          <path class="cls-9" d="M125.71,106.66c1.22.51,2.44,1.02,3.67,1.53.28.12.66-.13.72-.41.08-.34-.11-.59-.41-.72-1.22-.51-2.44-1.02-3.67-1.53-.28-.12-.66.13-.72.41-.08.34.11.59.41.72h0Z"/>
          <path class="cls-9" d="M121.11,103.19l1.25,1.51c.09.11.28.17.41.17.14,0,.32-.06.41-.17s.18-.26.17-.41-.07-.29-.17-.41l-1.25-1.51c-.09-.11-.28-.17-.41-.17-.14,0-.32.06-.41.17s-.18.26-.17.41.07.29.17.41h0Z"/>
          <path class="cls-9" d="M126.02,110.6c.71.22,1.42.43,2.13.65.29.09.65-.11.72-.41s-.1-.63-.41-.72c-.71-.22-1.42-.43-2.13-.65-.29-.09-.65.11-.72.41s.1.63.41.72h0Z"/>
          <path class="cls-9" d="M131.67,106.31c1.98,1.04,4.2,1.55,6.43,1.46.75-.03.75-1.2,0-1.17-2.03.08-4.04-.36-5.83-1.3-.67-.35-1.26.66-.59,1.01h0Z"/>
          <path class="cls-9" d="M134.57,110.63l3.08,1.16c.29.11.65-.12.72-.41.08-.33-.1-.6-.41-.72l-3.08-1.16c-.29-.11-.65.12-.72.41-.08.33.1.6.41.72h0Z"/>
          <path class="cls-9" d="M139.81,113.84c.78.71,1.8,1.11,2.86,1.11.31,0,.6-.27.59-.59s-.26-.59-.59-.59c-.11,0-.21,0-.32-.01-.04,0-.13,0-.16-.02.09.01.1.01.04,0-.03,0-.05,0-.08-.01-.21-.04-.42-.1-.61-.17-.02,0-.05-.02-.07-.03-.06-.02-.05-.02.03.01-.04,0-.11-.05-.14-.07-.1-.05-.19-.1-.28-.15s-.18-.12-.26-.18c-.05-.04-.04-.03.02.02-.02-.02-.04-.03-.06-.05-.04-.03-.08-.07-.12-.11-.23-.21-.61-.24-.83,0-.21.22-.24.61,0,.83h0Z"/>
          <path class="cls-9" d="M139.15,109.73c1.22.43,2.43.85,3.65,1.28.29.1.65-.12.72-.41.07-.33-.1-.61-.41-.72-1.22-.43-2.43-.85-3.65-1.28-.29-.1-.65.12-.72.41-.07.33.1.61.41.72h0Z"/>
          <path class="cls-9" d="M139.62,105.37c1.12.59,2.4.85,3.65.7.3-.04.6-.24.59-.59-.01-.29-.26-.62-.59-.59-.27.03-.55.05-.82.04-.14,0-.27-.01-.41-.02-.02,0-.24-.03-.14-.01-.07,0-.14-.02-.2-.03-.27-.05-.54-.12-.8-.21-.06-.02-.13-.05-.19-.07-.04-.01-.07-.03-.11-.04.04.02.04.02,0,0-.14-.06-.27-.12-.4-.19-.27-.14-.65-.08-.8.21-.14.27-.08.65.21.8h0Z"/>
          <path class="cls-9" d="M146.57,109.52l1.81,1.86c.21.22.62.23.83,0s.23-.59,0-.83l-1.81-1.86c-.21-.22-.62-.23-.83,0s-.23.59,0,.83h0Z"/>
          <path class="cls-9" d="M145.21,114.94c.52.91,1.03,1.82,1.55,2.74.15.27.54.38.8.21s.37-.52.21-.8l-1.55-2.74c-.15-.27-.54-.38-.8-.21s-.37.52-.21.8h0Z"/>
          <path class="cls-9" d="M149.44,116.02c-.13.93-.06,1.88.3,2.75.06.15.13.27.27.35.13.07.31.1.45.06.27-.09.53-.42.41-.72-.08-.19-.14-.39-.2-.59-.02-.09-.04-.17-.06-.26-.01-.06-.02-.12-.03-.18v-.04c-.02-.07-.02-.06,0,.02,0,0-.01-.12-.01-.13,0-.05,0-.1-.01-.16,0-.1,0-.19,0-.29,0-.1,0-.21.01-.31,0-.04,0-.09.01-.13,0-.03.03-.23,0-.06.02-.16.03-.3-.06-.45-.07-.12-.21-.24-.35-.27-.28-.06-.67.08-.72.41h0Z"/>
          <path class="cls-9" d="M130.26,117.99c.82,1.22,1.63,2.44,2.45,3.67.17.25.52.39.8.21.25-.16.39-.53.21-.8-.82-1.22-1.63-2.44-2.45-3.67-.17-.25-.52-.39-.8-.21-.25.16-.39.53-.21.8h0Z"/>
          <path class="cls-9" d="M125.26,122.79l1.22.61c.14.07.29.1.45.06.14-.04.28-.14.35-.27.07-.14.11-.3.06-.45-.05-.14-.13-.28-.27-.35l-1.22-.61c-.14-.07-.29-.1-.45-.06-.14.04-.28.14-.35.27-.07.14-.11.3-.06.45.05.14.13.28.27.35h0Z"/>
          <path class="cls-9" d="M109.36,116.1c.25.16.5.33.74.51.06.04.12.09.18.13.03.03.07.05.1.08-.04-.03-.04-.03,0,0,.12.1.25.2.37.3.47.39.9.81,1.32,1.26.21.23.62.23.83,0,.22-.24.22-.59,0-.83-.87-.94-1.87-1.76-2.94-2.46-.26-.17-.66-.06-.8.21-.15.29-.07.62.21.8h0Z"/>
          <path class="cls-9" d="M69.66,110.53c.38,1.1.96,2.11,1.73,2.98.2.23.62.22.83,0,.23-.25.22-.58,0-.83-.08-.09-.16-.19-.24-.28-.02-.02-.04-.05-.06-.07-.09-.12.04.06,0-.01-.04-.05-.07-.1-.11-.15-.15-.21-.29-.42-.42-.64s-.24-.44-.34-.66c-.03-.06-.05-.11-.08-.17-.05-.1.02.06,0-.01-.01-.03-.02-.06-.03-.09-.05-.12-.09-.25-.14-.37-.1-.29-.41-.51-.72-.41-.29.09-.51.41-.41.72h0Z"/>
          <path class="cls-9" d="M73.47,107.15c.41.51.82,1.01,1.23,1.52.09.11.28.17.41.17.14,0,.32-.06.41-.17s.18-.26.17-.41l-.02-.16c-.03-.1-.08-.19-.15-.26-.41-.51-.82-1.01-1.23-1.52-.09-.11-.28-.17-.41-.17-.14,0-.32.06-.41.17s-.18.26-.17.41l.02.16c.03.1.08.19.15.26h0Z"/>
          <path class="cls-9" d="M76.64,105.51c.69.73,1.38,1.47,2.07,2.2.21.22.62.23.83,0,.22-.24.22-.59,0-.83-.69-.73-1.38-1.47-2.07-2.2-.21-.22-.62-.23-.83,0-.22.24-.22.59,0,.83h0Z"/>
          <path class="cls-9" d="M79.72,102.04c.41.31.82.61,1.22.92.11.09.32.09.45.06s.28-.14.35-.27c.07-.14.11-.3.06-.45l-.06-.14c-.05-.09-.12-.16-.21-.21-.41-.31-.82-.61-1.22-.92-.11-.09-.32-.09-.45-.06s-.28.14-.35.27c-.07.14-.11.3-.06.45l.06.14c.05.09.12.16.21.21h0Z"/>
          <path class="cls-9" d="M68.53,102.87l.57,2.15c.08.3.42.51.72.41s.49-.4.41-.72c-.19-.72-.38-1.43-.57-2.15-.08-.3-.42-.51-.72-.41s-.49.4-.41.72h0Z"/>
          <path class="cls-9" d="M73.61,101.43l.91.62c.07.04.14.07.22.07.08.02.16.01.23-.01.14-.04.28-.14.35-.27.07-.14.11-.3.06-.45l-.06-.14c-.05-.09-.12-.16-.21-.21l-.91-.62c-.07-.04-.14-.07-.22-.07-.08-.02-.16-.01-.23.01-.14.04-.28.14-.35.27-.07.14-.11.3-.06.45l.06.14c.05.09.12.16.21.21h0Z"/>
          <path class="cls-9" d="M73.46,94.74l1.53.61c.13.05.33,0,.45-.06s.24-.21.27-.35c.03-.15.03-.32-.06-.45l-.09-.12c-.07-.07-.16-.12-.26-.15l-1.53-.61c-.13-.05-.33,0-.45.06s-.24.21-.27.35c-.03.15-.03.32.06.45l.09.12c.07.07.16.12.26.15h0Z"/>
          <path class="cls-9" d="M76.4,93.73c.99.65,2.15,1.01,3.33,1.08.31.02.6-.28.59-.59-.01-.33-.26-.57-.59-.59-.14,0-.28-.02-.42-.04.13.01-.04,0-.05,0-.07-.01-.14-.02-.21-.04-.25-.05-.5-.11-.74-.19-.13-.04-.25-.09-.37-.14-.16-.06.1.05-.06-.02-.06-.03-.13-.06-.19-.09-.24-.12-.47-.25-.69-.39-.26-.17-.66-.06-.8.21-.15.29-.06.62.21.8h0Z"/>
          <path class="cls-9" d="M79.57,89.86c1.02.21,2.03.43,3.05.64.3.06.65-.09.72-.41.07-.29-.09-.65-.41-.72-1.02-.21-2.03-.43-3.05-.64-.3-.06-.65.09-.72.41-.07.29.09.65.41.72h0Z"/>
          <path class="cls-9" d="M83.71,94.71c.92.11,1.83.21,2.75.32.31.04.6-.29.59-.59-.02-.35-.26-.55-.59-.59-.92-.11-1.83-.21-2.75-.32-.31-.04-.6.29-.59.59.02.35.26.55.59.59h0Z"/>
          <path class="cls-9" d="M88.17,90.32c.96.8,2.22,1.22,3.47,1.08.3-.03.6-.24.59-.59-.01-.29-.26-.62-.59-.59-.26.03-.53.04-.79.01-.03,0-.24-.03-.09,0-.07,0-.13-.02-.2-.03-.12-.02-.24-.05-.36-.09s-.24-.08-.35-.12c-.06-.03-.06-.02,0,0-.03-.01-.06-.03-.09-.04-.06-.03-.12-.06-.18-.09-.12-.06-.23-.13-.34-.2-.06-.04-.11-.08-.16-.11-.05-.04-.05-.04,0,0-.03-.02-.05-.04-.08-.06-.24-.19-.6-.25-.83,0-.2.22-.25.62,0,.83h0Z"/>
          <path class="cls-9" d="M80.22,84.12c1.69-.69,3.48-1.08,5.31-1.11.75-.01.76-1.18,0-1.17-1.93.03-3.84.42-5.62,1.15-.29.12-.5.39-.41.72.08.28.43.53.72.41h0Z"/>
          <path class="cls-9" d="M83.4,85.92c1.22-.12,2.44-.23,3.66-.35.3-.03.6-.25.59-.59-.01-.29-.26-.62-.59-.59-1.22.12-2.44.23-3.66.35-.3.03-.6.25-.59.59.01.29.26.62.59.59h0Z"/>
          <path class="cls-9" d="M91.5,85.23c.81.23,1.61.46,2.42.69.29.08.65-.1.72-.41s-.09-.63-.41-.72l-2.42-.69c-.29-.08-.65.1-.72.41s.09.63.41.72h0Z"/>
          <path class="cls-9" d="M99.45,87.03c.41.1.82.2,1.22.3.15.04.32.02.45-.06.12-.07.24-.21.27-.35.03-.15.03-.32-.06-.45s-.2-.23-.35-.27l-1.22-.3c-.15-.04-.32-.02-.45.06-.12.07-.24.21-.27.35-.03.15-.03.32.06.45s.2.23.35.27h0Z"/>
          <path class="cls-9" d="M94.22,88.7c1.25.31,2.56.39,3.84.23.3-.04.6-.24.59-.59-.01-.28-.26-.63-.59-.59-.6.08-1.21.1-1.82.07s-1.11-.11-1.71-.26c-.3-.07-.65.09-.72.41s.09.64.41.72h0Z"/>
          <path class="cls-9" d="M104.62,88.94l3.4,1.1c.29.09.65-.11.72-.41.07-.32-.1-.62-.41-.72l-3.4-1.1c-.29-.09-.65.11-.72.41-.07.32.1.62.41.72h0Z"/>
          <path class="cls-9" d="M114.25,91.35c1.28.8,2.68,1.42,4.13,1.85.3.09.64-.11.72-.41s-.1-.63-.41-.72c-1.37-.4-2.64-.97-3.86-1.73-.27-.17-.64-.06-.8.21s-.06.63.21.8h0Z"/>
          <path class="cls-9" d="M132.75,97.41c1.32.23,2.64.45,3.96.68.31.05.63-.08.72-.41.08-.28-.1-.67-.41-.72-1.32-.23-2.64-.45-3.96-.68-.31-.05-.63.08-.72.41-.08.28.1.67.41.72h0Z"/>
          <path class="cls-9" d="M139.14,99.66c1.52.63,3.12,1.02,4.75,1.2.31.03.59-.29.59-.59,0-.34-.27-.55-.59-.59-1.53-.17-3.02-.57-4.44-1.16-.29-.12-.64.13-.72.41-.09.34.12.6.41.72h0Z"/>
          <path class="cls-9" d="M125.25,95.07c.75,0,.75-1.17,0-1.17s-.75,1.17,0,1.17h0Z"/>
          <path class="cls-9" d="M113.64,127.76c.75,0,.75-1.17,0-1.17s-.75,1.17,0,1.17h0Z"/>
          <path class="cls-9" d="M60.29,111.27c.4.62.8,1.23,1.19,1.85.17.26.53.39.8.21.26-.17.39-.53.21-.8-.4-.62-.8-1.23-1.19-1.85-.17-.26-.53-.39-.8-.21-.26.17-.39.53-.21.8h0Z"/>
          <path class="cls-9" d="M62.95,107.01v1.83c0,.31.27.6.59.59s.59-.26.59-.59v-1.83c0-.31-.27-.6-.59-.59s-.59.26-.59.59h0Z"/>
          <path class="cls-9" d="M64.47,117.56l.31.91c.05.14.13.27.27.35.13.07.31.1.45.06s.28-.13.35-.27.11-.3.06-.45l-.31-.91c-.05-.14-.13-.27-.27-.35-.13-.07-.31-.1-.45-.06s-.28.13-.35.27-.11.3-.06.45h0Z"/>
          <path class="cls-9" d="M92.09,141.54c1.74.38,3.48.75,5.21,1.13.31.07.63-.09.72-.41.08-.29-.1-.65-.41-.72-1.74-.38-3.48-.75-5.21-1.13-.31-.07-.63.09-.72.41-.08.29.1.65.41.72h0Z"/>
          <path class="cls-9" d="M103.1,143.28l2.14.31c.16.02.3.03.45-.06.12-.07.24-.21.27-.35.03-.15.03-.32-.06-.45-.08-.12-.2-.25-.35-.27l-2.14-.31c-.16-.02-.3-.03-.45.06-.12.07-.24.21-.27.35-.03.15-.03.32.06.45.08.12.2.25.35.27h0Z"/>
          <path class="cls-9" d="M99.57,144.23c.41.21.81.41,1.22.62.14.07.3.1.45.06.14-.04.28-.14.35-.27.07-.14.11-.3.06-.45-.05-.14-.13-.28-.27-.35-.41-.21-.81-.41-1.22-.62-.14-.07-.3-.1-.45-.06-.14.04-.28.14-.35.27-.07.14-.11.3-.06.45.05.14.13.28.27.35h0Z"/>
          <path class="cls-9" d="M106.63,145.81c.03.28.05.56.04.84,0,.14-.01.28-.02.42,0,.04,0,.08-.01.12,0,.07,0,.08,0,.04,0-.04,0-.02,0,.04,0,.04-.01.08-.02.12-.05.28-.11.55-.2.81-.04.13-.09.26-.14.39-.04.11.02-.04-.03.08-.03.07-.07.14-.1.22-.13.28-.08.65.21.8.26.14.66.08.8-.21.55-1.14.8-2.41.66-3.67-.03-.3-.24-.6-.59-.59-.29.01-.62.26-.59.59h0Z"/>
          <path class="cls-9" d="M100.61,152.22l.61,1.22c.06.13.22.23.35.27.14.04.33.02.45-.06s.24-.2.27-.35c.04-.16.01-.3-.06-.45-.2-.41-.41-.81-.61-1.22-.06-.13-.22-.23-.35-.27-.14-.04-.33-.02-.45.06s-.24.2-.27.35c-.04.16-.01.3.06.45h0Z"/>
          <path class="cls-9" d="M102.96,152.37c-.15,1.04-.06,2.09.34,3.06.06.15.13.27.27.35.13.07.31.1.45.06.27-.09.53-.42.41-.72-.09-.21-.16-.43-.22-.65-.03-.11-.06-.22-.08-.34,0-.05-.02-.1-.03-.15,0-.03-.01-.06-.02-.1,0,.07,0,.08,0,.03-.02-.22-.04-.44-.04-.66,0-.11,0-.23.01-.34,0-.05,0-.1.01-.15,0-.03,0-.07.01-.1-.01.07-.01.08,0,0,.02-.16.03-.3-.06-.45-.07-.12-.21-.24-.35-.27-.28-.06-.67.08-.72.41h0Z"/>
          <path class="cls-9" d="M106.69,153.44c-.38.7-.49,1.52-.31,2.3.07.3.43.5.72.41.31-.1.48-.4.41-.72-.02-.08-.03-.16-.05-.25l.02.16c-.03-.23-.03-.46,0-.68l-.02.16c.03-.23.09-.45.18-.66l-.06.14c.04-.09.08-.17.12-.25.15-.27.07-.65-.21-.8s-.64-.08-.8.21h0Z"/>
          <path class="cls-9" d="M114.23,153.31c.3-.92.61-1.83.91-2.75.1-.29-.11-.65-.41-.72-.32-.07-.62.1-.72.41-.3.92-.61,1.83-.91,2.75-.1.29.11.65.41.72.32.07.62-.1.72-.41h0Z"/>
          <path class="cls-9" d="M110.3,152.72l.61-1.53c.05-.13,0-.33-.06-.45s-.21-.24-.35-.27c-.15-.03-.32-.03-.45.06l-.12.09c-.07.07-.12.16-.15.26l-.61,1.53c-.05.13,0,.33.06.45s.21.24.35.27c.15.03.32.03.45-.06l.12-.09c.07-.07.12-.16.15-.26h0Z"/>
          <path class="cls-9" d="M113.01,139.88l.31.92c.05.14.14.27.27.35.13.07.31.1.45.06s.28-.13.35-.27.11-.3.06-.45l-.31-.92c-.05-.14-.14-.27-.27-.35-.13-.07-.31-.1-.45-.06s-.28.13-.35.27-.11.3-.06.45h0Z"/>
          <path class="cls-9" d="M117.34,137.59c.54,1,1.08,2,1.62,3.01.15.27.54.38.8.21.27-.18.37-.51.21-.8-.54-1-1.08-2-1.62-3.01-.15-.27-.54-.38-.8-.21-.27.18-.37.51-.21.8h0Z"/>
          <path class="cls-9" d="M120.9,144.05l1.51,1.54c.21.22.62.23.83,0s.23-.59,0-.83l-1.51-1.54c-.21-.22-.62-.23-.83,0s-.23.59,0,.83h0Z"/>
          <path class="cls-9" d="M124.35,133.9c.05,1.58.75,3.12,1.95,4.15.23.2.6.24.83,0,.2-.22.25-.61,0-.83-.13-.11-.25-.22-.36-.35-.06-.06-.12-.13-.18-.2-.02-.02-.14-.17-.09-.11-.21-.27-.39-.57-.54-.88-.09-.18-.09-.18-.16-.38-.06-.16-.1-.32-.15-.48s-.07-.33-.1-.49c0,.06,0,.02,0-.02,0-.04,0-.08-.01-.12,0-.1-.01-.2-.02-.3,0-.31-.26-.6-.59-.59s-.6.26-.59.59h0Z"/>
          <path class="cls-9" d="M123.29,139.22l2.39,1.9c.13.1.25.17.41.17.14,0,.32-.06.41-.17.19-.21.26-.62,0-.83-.8-.63-1.6-1.27-2.39-1.9-.13-.1-.25-.17-.41-.17-.14,0-.32.06-.41.17-.19.21-.26.62,0,.83h0Z"/>
          <path class="cls-9" d="M129.43,142.86l2.47,3.04c.19.24.63.22.83,0,.23-.25.21-.57,0-.83l-2.47-3.04c-.19-.24-.63-.22-.83,0-.23.25-.21.57,0,.83h0Z"/>
          <path class="cls-9" d="M132.03,131.16c.51.91,1.03,1.83,1.54,2.74.15.27.54.38.8.21s.37-.52.21-.8c-.51-.91-1.03-1.83-1.54-2.74-.15-.27-.54-.38-.8-.21s-.37.52-.21.8h0Z"/>
          <path class="cls-9" d="M130.05,135.2c.71.61,1.43,1.22,2.14,1.83.12.1.25.17.41.17.14,0,.32-.06.41-.17.2-.22.25-.62,0-.83-.71-.61-1.43-1.22-2.14-1.83-.12-.1-.25-.17-.41-.17-.14,0-.32.06-.41.17-.2.22-.25.62,0,.83h0Z"/>
          <path class="cls-9" d="M136.05,138.16l1.22,2.14c.15.27.54.38.8.21s.37-.52.21-.8l-1.22-2.14c-.15-.27-.54-.38-.8-.21s-.37.52-.21.8h0Z"/>
          <path class="cls-9" d="M138.01,128.47l1.25,1.51c.09.11.28.17.41.17.14,0,.32-.06.41-.17s.18-.26.17-.41-.07-.29-.17-.41l-1.25-1.51c-.09-.11-.28-.17-.41-.17-.14,0-.32.06-.41.17s-.18.26-.17.41.07.29.17.41h0Z"/>
          <path class="cls-9" d="M139.14,132.64c.51.72,1.01,1.43,1.52,2.15.09.13.2.23.35.27.14.04.33.02.45-.06.25-.16.4-.53.21-.8-.51-.72-1.01-1.43-1.52-2.15-.09-.13-.2-.23-.35-.27-.14-.04-.33-.02-.45.06-.25.16-.4.53-.21.8h0Z"/>
          <path class="cls-9" d="M142.99,127.97c.48.37,1.06.61,1.65.7.16.02.3.03.45-.06.12-.07.24-.21.27-.35.03-.15.03-.32-.06-.45-.08-.12-.2-.25-.35-.27-.28-.04-.54-.12-.8-.22l.14.06c-.26-.11-.5-.25-.72-.42-.11-.09-.32-.09-.45-.06-.14.04-.28.14-.35.27-.07.14-.11.3-.06.45l.06.14c.05.09.12.16.21.21h0Z"/>
          <path class="cls-9" d="M146.67,125.82c.81.62,1.62,1.24,2.43,1.86.11.09.32.09.45.06.14-.04.28-.14.35-.27.07-.14.11-.3.06-.45s-.14-.25-.27-.35c-.81-.62-1.62-1.24-2.43-1.86-.11-.09-.32-.09-.45-.06-.14.04-.28.14-.35.27-.07.14-.11.3-.06.45s.14.25.27.35h0Z"/>
          <path class="cls-9" d="M149.89,126.06l.61.61c.05.06.12.1.19.12.07.04.14.05.23.05.08,0,.16-.01.23-.05.07-.02.14-.06.19-.12.1-.11.18-.26.17-.41l-.02-.16c-.03-.1-.08-.19-.15-.26l-.61-.61c-.05-.06-.12-.1-.19-.12-.07-.04-.14-.05-.23-.05-.08,0-.16.01-.23.05-.07.02-.14.06-.19.12-.1.11-.18.26-.17.41l.02.16c.03.1.08.19.15.26h0Z"/>
          <path class="cls-9" d="M144.35,131.29l.92.92c.11.11.26.17.41.17s.32-.06.41-.17.18-.26.17-.41-.06-.3-.17-.41l-.92-.92c-.11-.11-.26-.17-.41-.17s-.32.06-.41.17-.18.26-.17.41.06.3.17.41h0Z"/>
          <path class="cls-9" d="M116.9,112.61c.81.72,1.62,1.44,2.43,2.16.23.2.61.24.83,0,.2-.22.24-.61,0-.83-.81-.72-1.62-1.44-2.43-2.16-.23-.2-.61-.24-.83,0-.2.22-.24.61,0,.83h0Z"/>
          <path class="cls-9" d="M124.8,117.24c1.44,1.21,2.87,2.42,4.31,3.63.24.2.59.24.83,0,.21-.21.24-.62,0-.83-1.44-1.21-2.87-2.42-4.31-3.63-.24-.2-.59-.24-.83,0-.21.21-.24.62,0,.83h0Z"/>
          <path class="cls-22" d="M156.79,110.83c.21.81.43,1.62.64,2.44.08.3.42.51.72.41s.49-.4.41-.72c-.21-.81-.43-1.62-.64-2.44-.08-.3-.42-.51-.72-.41s-.49.4-.41.72h0Z"/>
          <path class="cls-22" d="M160.89,114.14c.51.51,1.02,1.02,1.53,1.53.22.22.61.23.83,0s.23-.6,0-.83c-.51-.51-1.02-1.02-1.53-1.53-.22-.22-.61-.23-.83,0s-.23.6,0,.83h0Z"/>
          <path class="cls-22" d="M163.07,122.23c-.15-1.69-.51-3.35-1.1-4.94-.11-.3-.4-.5-.72-.41-.28.08-.52.42-.41.72.56,1.49.92,3.05,1.06,4.63.03.32.25.59.59.59.3,0,.61-.27.59-.59h0Z"/>
          <path class="cls-22" d="M170.15,127.23c-.6-2.18-1.38-4.29-2.32-6.34-.13-.29-.55-.36-.8-.21-.3.17-.34.51-.21.8.9,1.96,1.63,3.99,2.2,6.06.2.73,1.33.42,1.13-.31h0Z"/>
          <path class="cls-22" d="M171.58,121.17l.92.92c.11.11.26.17.41.17s.32-.06.41-.17.18-.26.17-.41-.06-.3-.17-.41l-.92-.92c-.11-.11-.26-.17-.41-.17s-.32.06-.41.17-.18.26-.17.41.06.3.17.41h0Z"/>
          <path class="cls-22" d="M168.83,113.1c-1.16-1.26-2.5-2.35-3.97-3.24-.27-.16-.73-.21-.91.1s.09.69.35.85c.34.21.68.43,1.01.66.05.03.09.06.14.1.01,0,.12.09.06.04-.08-.06.07.05.08.06.04.03.07.05.11.08.17.13.33.26.5.39.63.52,1.22,1.08,1.77,1.68.22.24.71.35.97.13.3-.25.11-.62-.1-.84h0Z"/>
          <path class="cls-22" d="M165.61,116.22c.96,1.44,2.04,2.78,3.24,4.02.22.23.61.22.83,0s.22-.6,0-.83c-1.15-1.18-2.16-2.42-3.06-3.78-.18-.26-.52-.38-.8-.21-.26.15-.39.54-.21.8h0Z"/>
          <path class="cls-22" d="M170.67,116.15c1.63,1.01,3.26,2.03,4.9,3.04.28.18.27-.27.23-.42-.08-.32-.28-.66-.57-.83-1.63-1.01-3.26-2.03-4.9-3.04-.28-.18-.27.27-.23.42.08.32.28.66.57.83h0Z"/>
          <path class="cls-20" d="M172.77,126.21l.89,1.54c.15.27.54.38.8.21s.37-.52.21-.8l-.89-1.54c-.15-.27-.54-.38-.8-.21s-.37.52-.21.8h0Z"/>
          <path class="cls-22" d="M177.38,121.08l.63,1.83c.05.14.23.25.36.28.17.04.39.02.54-.06.32-.16.55-.47.43-.83l-.63-1.83c-.05-.14-.23-.25-.36-.28-.17-.04-.39-.02-.54.06-.32.16-.55.47-.43.83h0Z"/>
          <path class="cls-22" d="M180.99,122.87c.31.41.61.82.92,1.22.04.07.09.12.15.16.06.05.12.09.2.1.14.04.33.02.45-.06s.24-.2.27-.35.03-.33-.06-.45c-.31-.41-.61-.82-.92-1.22-.04-.07-.09-.12-.15-.16-.06-.05-.12-.09-.2-.1-.14-.04-.33-.02-.45.06s-.24.2-.27.35-.03.33.06.45h0Z"/>
          <path class="cls-22" d="M170.61,111.59c.71.21,1.42.42,2.13.64.29.09.65-.11.72-.41s-.09-.63-.41-.72c-.71-.21-1.42-.42-2.13-.64-.29-.09-.65.11-.72.41s.09.63.41.72h0Z"/>
          <path class="cls-22" d="M176.41,114.21c.93.8,1.86,1.6,2.79,2.4.23.2.6.25.83,0,.2-.22.25-.61,0-.83-.93-.8-1.86-1.6-2.79-2.4-.23-.2-.6-.25-.83,0-.2.22-.25.61,0,.83h0Z"/>
          <path class="cls-7" d="M16.94,140.44c.5-.04.99-.14,1.46-.3.15-.05.27-.13.35-.27.07-.13.1-.31.06-.45s-.13-.28-.27-.35-.3-.11-.45-.06c-.34.12-.7.2-1.06.25l.16-.02c-.08.01-.16.02-.25.03-.16.01-.3.06-.41.17-.1.1-.18.27-.17.41s.06.31.17.41c.11.1.26.19.41.17h0Z"/>
          <path class="cls-7" d="M22.81,138.06c.46-.26.91-.52,1.37-.78.13-.07.23-.21.27-.35s.02-.33-.06-.45c-.17-.27-.52-.37-.8-.21-.46.26-.91.52-1.37.78-.13.07-.23.21-.27.35s-.02.33.06.45c.17.27.52.37.8.21h0Z"/>
          <path class="cls-7" d="M22.98,140.97c.76-.26,1.5-.59,2.2-.99.27-.15.38-.54.21-.8s-.52-.37-.8-.21c-.32.19-.65.36-.99.51-.08.04-.16.07-.25.11-.06.02-.05.02.03-.01-.02,0-.05.02-.07.03-.04.01-.07.03-.11.04-.18.07-.36.14-.54.2-.29.1-.51.41-.41.72.09.29.41.52.72.41h0Z"/>
          <path class="cls-7" d="M30.32,135.5c1.01-.6,2.02-1.2,3.03-1.79.26-.16.38-.53.21-.8s-.52-.38-.8-.21c-1.01.6-2.02,1.2-3.03,1.79-.26.16-.38.53-.21.8s.52.38.8.21h0Z"/>
          <path class="cls-7" d="M37.38,133.88l.68-1.07c.08-.13.1-.31.06-.45s-.14-.28-.27-.35c-.14-.07-.3-.11-.45-.06s-.27.14-.35.27l-.68,1.07c-.08.13-.1.31-.06.45s.14.28.27.35c.14.07.3.11.45.06s.27-.14.35-.27h0Z"/>
          <path class="cls-7" d="M13.2,154.1c.92-.28,1.83-.56,2.75-.84.29-.09.51-.41.41-.72s-.41-.5-.72-.41c-.92.28-1.83.56-2.75.84-.29.09-.51.41-.41.72s.41.5.72.41h0Z"/>
          <path class="cls-7" d="M25.52,151.14l1.15-.99c.11-.09.17-.27.17-.41s-.06-.32-.17-.41-.26-.18-.41-.17-.29.07-.41.17l-1.15.99c-.11.09-.17.27-.17.41s.06.32.17.41.26.18.41.17.29-.07.41-.17h0Z"/>
          <path class="cls-7" d="M18.76,154.03c.12-.05.23-.1.35-.15.03-.01.07-.03.1-.04-.05.02-.05.02-.02,0,.06-.02.12-.05.17-.07.22-.09.45-.18.68-.27.46-.17.93-.33,1.41-.48.29-.09.51-.41.41-.72s-.41-.51-.72-.41c-1.01.31-2,.69-2.97,1.12-.28.13-.37.56-.21.8.19.29.5.34.8.21h0Z"/>
          <path class="cls-7" d="M34.84,143.84c1.14-.55,2.35-.98,3.61-1.31.3-.08.51-.42.41-.72s-.4-.49-.72-.41c-1.34.35-2.64.83-3.88,1.43-.29.14-.36.54-.21.8.17.29.51.35.8.21h0Z"/>
          <path class="cls-7" d="M30.39,147.6c.6-.09,1.19-.24,1.76-.46.15-.06.27-.13.35-.27.07-.13.1-.31.06-.45s-.13-.28-.27-.35-.31-.11-.45-.06c-.57.22-1.16.37-1.76.46-.13.02-.28.16-.35.27-.07.13-.1.31-.06.45s.13.28.27.35l.14.06c.1.03.21.03.31,0h0Z"/>
          <path class="cls-7" d="M33.66,148.99c.66-.33,1.32-.66,1.99-.99.27-.14.37-.55.21-.8-.18-.28-.51-.36-.8-.21-.66.33-1.32.66-1.99.99-.27.14-.37.55-.21.8.18.28.51.36.8.21h0Z"/>
          <path class="cls-7" d="M40.81,144.5c.28-.5.58-.98.91-1.44.08-.11.16-.22.24-.33.02-.03.04-.05.06-.08.05-.07-.05.07,0,0,.05-.06.09-.12.14-.18.18-.22.37-.44.56-.66.2-.23.24-.61,0-.83-.22-.2-.61-.24-.83,0-.8.9-1.51,1.88-2.1,2.93-.15.27-.07.65.21.8s.64.08.8-.21h0Z"/>
          <path class="cls-7" d="M41.99,137.62c.61-.47,1.19-.99,1.71-1.56.1-.11.17-.26.17-.41,0-.14-.06-.32-.17-.41-.22-.21-.61-.24-.83,0-.48.53-1,1.01-1.57,1.45l.12-.09-.02.02c-.13.1-.22.19-.27.35-.04.14-.02.33.06.45s.2.24.35.27.33.03.45-.06h0Z"/>
          <path class="cls-7" d="M38.88,103.95s0,.06-.01.09l.02-.16c-.04.31-.11.61-.22.9-.05.14-.01.33.06.45s.21.24.35.27c.15.03.32.03.45-.06l.12-.09c.07-.07.12-.16.15-.26.13-.37.2-.76.25-1.15,0-.08-.01-.16-.05-.23-.02-.07-.06-.14-.12-.19-.1-.1-.27-.18-.41-.17s-.31.06-.41.17l-.09.12c-.05.09-.08.19-.08.3h0Z"/>
          <path class="cls-7" d="M36,107.43c-.71.81-1.33,1.7-1.84,2.64-.15.27-.08.65.21.8s.65.08.8-.21c.24-.44.5-.88.79-1.29.07-.1.14-.2.21-.3.04-.05.07-.1.11-.15.02-.02.04-.05.06-.07.04-.05.02-.03,0,0,.15-.21.33-.41.5-.6.2-.23.24-.6,0-.83-.22-.2-.61-.25-.83,0h0Z"/>
          <path class="cls-7" d="M35.99,116.25c.08.5.33.97.67,1.33.1.11.27.17.41.17s.32-.06.41-.17.18-.26.17-.41-.06-.3-.17-.41c-.04-.05-.09-.1-.13-.15l.09.12c-.1-.14-.19-.29-.26-.44l.06.14c-.06-.15-.11-.31-.13-.48-.02-.14-.16-.28-.27-.35-.13-.07-.31-.1-.45-.06s-.28.13-.35.27l-.06.14c-.03.1-.03.21,0,.31h0Z"/>
          <path class="cls-7" d="M35.27,118.7c.13,1.39.65,2.67,1.51,3.76.19.24.63.22.83,0,.23-.26.2-.57,0-.83-.04-.05-.05-.06-.01-.01-.02-.03-.05-.06-.07-.09-.04-.06-.09-.12-.13-.18-.08-.12-.16-.25-.24-.38-.07-.11-.13-.23-.19-.35-.03-.07-.07-.14-.1-.2-.02-.03-.03-.07-.05-.1.02.05.02.05,0-.02-.1-.26-.19-.53-.26-.8-.04-.15-.07-.29-.09-.44,0-.02-.03-.24-.02-.12,0-.07-.02-.15-.02-.22-.03-.3-.25-.6-.59-.59-.29.01-.62.26-.59.59h0Z"/>
          <path class="cls-7" d="M38.68,118.19c.55.53,1.15,1,1.79,1.4.26.16.66.06.8-.21.15-.29.07-.63-.21-.8s-.56-.37-.82-.57l.12.09c-.3-.23-.58-.47-.85-.73-.22-.21-.61-.24-.83,0s-.24.6,0,.83h0Z"/>
          <path class="cls-7" d="M33.07,118.62l.08.69c0,.08.01.16.05.23.02.07.06.14.12.19.05.06.12.1.19.12.07.04.14.05.23.05.15,0,.31-.06.41-.17l.09-.12c.05-.09.08-.19.08-.3l-.08-.69c0-.08-.01-.16-.05-.23-.02-.07-.06-.14-.12-.19-.05-.06-.12-.1-.19-.12-.07-.04-.14-.05-.23-.05-.15,0-.31.06-.41.17l-.09.12c-.05.09-.08.19-.08.3h0Z"/>
          <path class="cls-7" d="M39.47,122.35c.58.07,1.17.09,1.76.05.16-.01.3-.06.41-.17.1-.1.18-.27.17-.41-.01-.3-.26-.61-.59-.59-.59.04-1.18.02-1.76-.05-.14-.02-.32.08-.41.17-.1.1-.18.27-.17.41s.06.31.17.41l.12.09c.09.05.19.08.3.08h0Z"/>
          <path class="cls-7" d="M31.71,137.67l1.53-1.3c.11-.09.17-.28.17-.41s-.06-.32-.17-.41-.26-.18-.41-.17-.29.07-.41.17l-1.53,1.3c-.11.09-.17.28-.17.41s.06.32.17.41.26.18.41.17.29-.07.41-.17h0Z"/>
          <path class="cls-7" d="M12.58,143.01l1.14.41c.14.05.33.01.45-.06s.24-.21.27-.35c.03-.15.03-.32-.06-.45s-.2-.21-.35-.27l-1.14-.41c-.14-.05-.33-.01-.45.06s-.24.21-.27.35c-.03.15-.03.32.06.45s.2.21.35.27h0Z"/>
          <path class="cls-7" d="M19.6,142.88c.33-.24.69-.45,1.07-.61.13-.05.23-.22.27-.35.04-.14.02-.33-.06-.45s-.2-.24-.35-.27l-.16-.02c-.11,0-.2.03-.3.08-.38.16-.74.37-1.07.61-.07.04-.12.09-.16.15-.05.06-.09.12-.1.2-.04.14-.02.33.06.45s.2.24.35.27.33.03.45-.06h0Z"/>
          <path class="cls-7" d="M30.13,166.29c.42-.15.84-.31,1.26-.46.15-.05.27-.13.35-.27.07-.13.1-.31.06-.45s-.13-.28-.27-.35-.3-.11-.45-.06c-.42.15-.84.31-1.26.46-.15.05-.27.13-.35.27-.07.13-.1.31-.06.45s.13.28.27.35.3.11.45.06h0Z"/>
          <path class="cls-7" d="M34.16,165.65c.55-.24,1.06-.59,1.49-1.01.11-.11.17-.26.17-.41s-.06-.32-.17-.41c-.23-.22-.6-.23-.83,0-.13.13-.26.24-.4.36l.12-.09c-.3.23-.62.42-.97.57-.13.05-.23.23-.27.35-.04.14-.02.33.06.45s.2.24.35.27l.16.02c.11,0,.2-.03.3-.08h0Z"/>
          <path class="cls-7" d="M36.78,160.28l1.58-2.99c.14-.27.08-.65-.21-.8-.27-.14-.65-.08-.8.21-.53,1-1.05,1.99-1.58,2.99-.14.27-.08.65.21.8.27.14.65.08.8-.21h0Z"/>
          <path class="cls-7" d="M38.85,161.76l.8-.8c.11-.11.17-.26.17-.41,0-.08-.01-.16-.05-.23-.02-.07-.06-.14-.12-.19-.11-.1-.26-.18-.41-.17s-.3.06-.41.17l-.8.8c-.11.11-.17.26-.17.41,0,.08.01.16.05.23.02.07.06.14.12.19.11.1.26.18.41.17s.3-.06.41-.17h0Z"/>
          <path class="cls-7" d="M39.86,154.72c.56-.16,1.08-.46,1.51-.86.11-.1.17-.27.17-.41s-.06-.32-.17-.41c-.24-.22-.59-.23-.83,0-.08.07-.15.14-.24.2l.12-.09c-.2.16-.42.29-.66.39l.14-.06c-.11.05-.23.09-.35.12-.14.04-.27.14-.35.27s-.1.31-.06.45.13.28.27.35.3.1.45.06h0Z"/>
          <path class="cls-7" d="M43.39,154.94c0-.07.02-.15.03-.22l-.02.16c.07-.52.21-1.02.41-1.51.05-.13,0-.34-.06-.45s-.21-.24-.35-.27c-.15-.03-.32-.03-.45.06s-.21.2-.27.35c-.25.6-.39,1.23-.45,1.88-.01.14.08.32.17.41.1.1.27.18.41.17s.31-.06.41-.17c.11-.12.15-.25.17-.41h0Z"/>
          <path class="cls-7" d="M45.36,152.03l.11-.23c.04-.07.07-.14.07-.22.02-.08.01-.16-.01-.23-.02-.08-.05-.14-.1-.2-.04-.06-.1-.11-.16-.15l-.14-.06c-.1-.03-.21-.03-.31,0l-.14.06c-.09.05-.16.12-.21.21l-.11.23c-.04.07-.07.14-.07.22-.02.08-.01.16.01.23.02.08.05.14.1.2.04.06.1.11.16.15l.14.06c.1.03.21.03.31,0l.14-.06c.09-.05.16-.12.21-.21h0Z"/>
          <path class="cls-7" d="M43.28,150.98c.15-.31.31-.61.46-.92.07-.14.1-.3.06-.45-.04-.14-.14-.28-.27-.35-.14-.07-.3-.11-.45-.06-.14.05-.28.13-.35.27-.15.31-.31.61-.46.92-.07.14-.1.3-.06.45.04.14.14.28.27.35.14.07.3.11.45.06.14-.05.28-.13.35-.27h0Z"/>
          <path class="cls-7" d="M46.37,148.34c.21-.69.35-1.4.44-2.11.02-.14-.08-.32-.17-.41-.1-.1-.27-.18-.41-.17s-.31.06-.41.17c-.11.12-.15.25-.17.41,0,.04,0,.08-.01.11l.02-.16c-.08.63-.22,1.24-.4,1.85-.09.29.11.65.41.72s.62-.1.72-.41h0Z"/>
          <path class="cls-7" d="M45.47,145.14c.38-.54.76-1.07,1.14-1.61.08-.12.1-.32.06-.45s-.14-.28-.27-.35c-.14-.07-.3-.11-.45-.06s-.26.14-.35.27c-.38.54-.76,1.07-1.14,1.61-.08.12-.1.32-.06.45s.14.28.27.35c.14.07.3.11.45.06s.26-.14.35-.27h0Z"/>
          <path class="cls-7" d="M47.76,140.79l.35-.46c.04-.07.07-.14.07-.22.02-.08.01-.16-.01-.23-.02-.08-.05-.14-.1-.2-.04-.06-.1-.11-.16-.15l-.14-.06c-.1-.03-.21-.03-.31,0l-.14.06c-.09.05-.16.12-.21.21l-.35.46c-.04.07-.07.14-.07.22-.02.08-.01.16.01.23.02.08.05.14.1.2.04.06.1.11.16.15l.14.06c.1.03.21.03.31,0l.14-.06c.09-.05.16-.12.21-.21h0Z"/>
          <path class="cls-7" d="M50.26,140.27v-2.64c0-.31-.27-.6-.59-.59s-.59.26-.59.59v2.64c0,.31.27.6.59.59s.59-.26.59-.59h0Z"/>
          <path class="cls-7" d="M45.59,135.34c.24-.1.47-.21.69-.35s.42-.3.6-.49c.11-.11.17-.26.17-.41s-.06-.32-.17-.41-.26-.18-.41-.17-.3.06-.41.17c-.1.09-.2.18-.3.27l.12-.09c-.22.17-.46.31-.71.41l.14-.06h-.02c-.08.02-.14.06-.2.11-.06.04-.11.1-.15.16-.07.13-.1.31-.06.45s.13.28.27.35l.14.06c.1.03.21.03.31,0h0Z"/>
          <path class="cls-7" d="M45.96,131.98c.34-.38.69-.76,1.03-1.15.1-.12.17-.26.17-.41,0-.14-.06-.32-.17-.41s-.26-.18-.41-.17-.31.06-.41.17c-.34.38-.69.76-1.03,1.15-.1.12-.17.26-.17.41,0,.14.06.32.17.41s.26.18.41.17.31-.06.41-.17h0Z"/>
          <path class="cls-7" d="M43.55,128.07c.57-.38,1.15-.76,1.72-1.14.13-.08.23-.2.27-.35.04-.14.02-.33-.06-.45-.16-.25-.53-.39-.8-.21-.57.38-1.15.76-1.72,1.14-.13.08-.23.2-.27.35-.04.14-.02.33.06.45.16.25.53.39.8.21h0Z"/>
          <path class="cls-7" d="M47.2,122.81c.46-.61.92-1.22,1.37-1.83.09-.11.09-.32.06-.45s-.14-.28-.27-.35c-.14-.07-.3-.11-.45-.06s-.25.14-.35.27c-.46.61-.92,1.22-1.37,1.83-.09.11-.09.32-.06.45s.14.28.27.35c.14.07.3.11.45.06s.25-.14.35-.27h0Z"/>
          <path class="cls-7" d="M49.84,128.08c.73-1.3,1.46-2.59,2.19-3.89.16-.28.07-.64-.21-.8s-.65-.07-.8.21c-.73,1.3-1.46,2.59-2.19,3.89-.16.28-.07.64.21.8s.65.07.8-.21h0Z"/>
          <path class="cls-7" d="M52.46,130.41c.88-.26,1.76-.52,2.64-.78.29-.09.51-.42.41-.72s-.41-.5-.72-.41l-2.64.78c-.29.09-.51.42-.41.72s.41.5.72.41h0Z"/>
          <path class="cls-7" d="M53.79,120.35h.8c.15,0,.31-.07.41-.17.06-.05.1-.12.12-.19.04-.07.05-.14.05-.23,0-.15-.06-.31-.17-.41s-.26-.17-.41-.17h-.8c-.15,0-.31.07-.41.17-.06.05-.1.12-.12.19-.04.07-.05.14-.05.23,0,.15.06.31.17.41s.26.17.41.17h0Z"/>
          <path class="cls-7" d="M51.69,118.15c.13.03.26.05.39.04.09,0,.18-.02.26-.04s.17-.06.25-.1c.12-.05.22-.13.31-.21.03-.03.06-.06.09-.09.06-.07.11-.14.16-.21.08-.13.1-.3.06-.45-.02-.08-.05-.14-.1-.2-.04-.06-.1-.11-.16-.15-.14-.07-.3-.11-.45-.06s-.27.13-.35.27c-.02.03-.03.05-.05.08l.09-.12s-.08.09-.13.13l.12-.09c-.05.04-.11.08-.18.1l.14-.06c-.06.02-.12.04-.18.05l.16-.02c-.06,0-.13,0-.19,0l.16.02s-.04,0-.07-.01c-.15-.04-.31-.02-.45.06-.07.04-.12.09-.16.15-.05.06-.09.12-.1.2-.03.15-.03.32.06.45.08.13.2.23.35.27h0Z"/>
          <path class="cls-7" d="M56.27,124.34l.34.11c.08.02.16.03.23.01.08,0,.15-.03.22-.07.07-.04.12-.09.16-.15.05-.06.09-.12.1-.2l.02-.16c0-.11-.03-.2-.08-.3l-.09-.12c-.07-.07-.16-.12-.26-.15l-.34-.11c-.08-.02-.16-.03-.23-.01-.08,0-.15.03-.22.07-.07.04-.12.09-.16.15-.05.06-.09.12-.1.2l-.02.16c0,.11.03.2.08.3l.09.12c.07.07.16.12.26.15h0Z"/>
          <path class="cls-7" d="M57.08,131.41c.65-.76,1.16-1.62,1.51-2.56.11-.29-.12-.65-.41-.72-.33-.08-.6.1-.72.41-.02.05-.04.1-.06.15,0,.02-.02.05-.03.07,0-.03.04-.1.01-.03-.04.1-.09.2-.13.29-.1.2-.2.39-.31.58s-.23.36-.35.54c-.03.04-.06.09-.09.13-.02.02-.03.04-.05.06-.05.06.07-.09.02-.02-.07.09-.14.18-.22.26-.2.23-.25.6,0,.83.22.2.62.25.83,0h0Z"/>
          <path class="cls-7" d="M55.36,139.55c.5-.99.85-2.04,1.03-3.14.05-.3-.08-.64-.41-.72-.28-.06-.67.09-.72.41-.08.51-.2,1.02-.36,1.51-.08.24-.16.48-.26.72-.01.03-.02.05-.03.08.02-.06.02-.05,0,.01-.03.06-.05.12-.08.17-.06.12-.12.25-.18.37-.14.27-.08.65.21.8.27.14.65.08.8-.21h0Z"/>
          <path class="cls-7" d="M57.37,142.73l.41-1.05c.02-.08.03-.16.01-.23,0-.08-.03-.15-.07-.22-.07-.12-.21-.24-.35-.27-.15-.03-.32-.03-.45.06l-.12.09c-.07.07-.12.16-.15.26l-.41,1.05c-.02.08-.03.16-.01.23,0,.08.03.15.07.22.07.12.21.24.35.27.15.03.32.03.45-.06l.12-.09c.07-.07.12-.16.15-.26h0Z"/>
          <path class="cls-7" d="M58.84,137.99c.75,0,.75-1.17,0-1.17s-.75,1.17,0,1.17h0Z"/>
          <path class="cls-7" d="M56.89,146.16l.23-.57c.02-.08.03-.16.01-.23,0-.08-.03-.15-.07-.22-.04-.07-.09-.12-.15-.16-.06-.05-.12-.09-.2-.1l-.16-.02c-.11,0-.2.03-.3.08l-.12.09c-.07.07-.12.16-.15.26l-.23.57c-.02.08-.03.16-.01.23,0,.08.03.15.07.22.04.07.09.12.15.16.06.05.12.09.2.1l.16.02c.11,0,.2-.03.3-.08l.12-.09c.07-.07.12-.16.15-.26h0Z"/>
          <path class="cls-7" d="M52.52,150.97l.46-2.06c.07-.3-.09-.65-.41-.72-.3-.07-.65.09-.72.41l-.46,2.06c-.07.3.09.65.41.72.3.07.65-.09.72-.41h0Z"/>
          <path class="cls-7" d="M53.73,153.98c.39-.68.78-1.36,1.17-2.05.15-.27.07-.65-.21-.8s-.64-.07-.8.21l-1.17,2.05c-.15.27-.07.65.21.8s.64.07.8-.21h0Z"/>
          <path class="cls-7" d="M52.43,157.12v-2.64c0-.31-.27-.6-.59-.59s-.59.26-.59.59v2.64c0,.31.27.6.59.59s.59-.26.59-.59h0Z"/>
          <path class="cls-7" d="M43.6,120.81h1.37c.15,0,.31-.07.41-.17s.18-.27.17-.41c-.01-.32-.26-.59-.59-.59h-1.37c-.15,0-.31.07-.41.17s-.18.27-.17.41c.01.32.26.59.59.59h0Z"/>
        </g>
      </g>
    </g>
  </g>
</svg>