<?xml version="1.0" encoding="UTF-8"?>
<svg id="Layer_1" xmlns="http://www.w3.org/2000/svg" version="1.1" viewBox="0 0 767.1 237.7">
  <!-- Generator: Adobe Illustrator 30.2.1, SVG Export Plug-In . SVG Version: 2.1.1 Build 1)  -->
  <defs>
    <style>
      .st0 {
        fill: #205c40;
      }

      .st1 {
        fill: #43b02a;
      }
    </style>
  </defs>
  <path class="st0" d="M43.5,82.5h36.2v12.6c9.9-9.5,20.9-14.2,33.2-14.2s26.8,6.4,34.8,19.2c8.1-12.9,19.7-19.4,34.8-19.4s9.3.7,13.6,2.1,7.9,3.6,11,6.6,5.5,6.9,7.3,11.7,2.7,10.6,2.7,17.4v66.6h-36.2v-50.6c0-5.2-.4-9.5-1.1-12.8-.7-3.3-1.8-5.9-3.2-7.8s-3-3.1-4.9-3.8c-1.9-.7-3.9-1-6-1-11.6,0-17.4,8.5-17.4,25.4v50.6h-36.2v-50.6c0-5.2-.3-9.5-1-12.9s-1.6-6.1-2.9-8.1c-1.3-2-2.9-3.4-4.9-4.1-2-.7-4.3-1.1-7-1.1s-4.4.3-6.4,1-3.8,2-5.3,3.9c-1.5,1.9-2.7,4.6-3.6,8-.9,3.4-1.3,7.8-1.3,13.3v50.6h-36.2v-102.6h0Z"/>
  <path class="st0" d="M310.1,82.5h36.4v102.6h-36.4v-11.4c-7.7,9.7-18.2,14.6-31.4,14.6s-14.3-1.4-20.6-4.1c-6.3-2.7-11.7-6.6-16.4-11.5s-8.3-10.7-10.9-17.4c-2.6-6.7-3.9-13.9-3.9-21.8s1.3-14.3,3.8-20.9,6.1-12.4,10.6-17.3c4.5-4.9,9.9-8.8,16.2-11.7,6.3-2.9,13.2-4.3,20.8-4.3,12.8,0,23.4,4.5,31.8,13.4v-10.2h0ZM264.5,133.5c0,3.3.6,6.4,1.8,9.3,1.2,2.9,2.8,5.4,4.9,7.5,2.1,2.1,4.5,3.8,7.4,5s6,1.8,9.3,1.8,6.2-.6,9.1-1.8,5.3-2.9,7.4-5,3.7-4.6,5-7.4c1.3-2.8,1.9-5.8,1.9-9s-.6-6.2-1.9-9.1c-1.3-2.9-2.9-5.4-5-7.5s-4.5-3.8-7.4-5c-2.9-1.2-5.9-1.8-9.1-1.8s-6.4.6-9.3,1.8c-2.9,1.2-5.3,2.9-7.4,5s-3.7,4.6-4.9,7.3c-1.2,2.7-1.8,5.7-1.8,8.9h0Z"/>
  <path class="st0" d="M403.5,112.7v72.4h-36.2v-72.4h-12v-30.2h12v-30.8h36.2v30.8h20.6v30.2s-20.6,0-20.6,0Z"/>
  <path class="st0" d="M470.4,112.7v72.4h-36.2v-72.4h-12v-30.2h12v-30.8h36.2v30.8h20.6v30.2s-20.6,0-20.6,0Z"/>
  <path class="st0" d="M527.9,139.9c0,15.6,7.3,23.4,22,23.4s13.8-3.2,17.8-9.6h35c-7.1,23.5-24.7,35.2-53,35.2s-16.6-1.3-23.8-3.9c-7.2-2.6-13.4-6.3-18.5-11.1s-9.1-10.5-11.9-17.2-4.2-14.1-4.2-22.4,1.3-16.2,4-23.1c2.7-6.9,6.5-12.7,11.4-17.5,4.9-4.8,10.9-8.5,17.9-11.1s14.9-3.9,23.7-3.9,16.5,1.3,23.4,3.9c6.9,2.6,12.8,6.4,17.6,11.3s8.5,11,11,18.1c2.5,7.1,3.8,15.2,3.8,24.1v3.8h-76.2ZM570.3,118.9c-1.2-5.1-3.7-9.1-7.4-12.2-3.7-3.1-8.3-4.6-13.6-4.6s-10.2,1.5-13.7,4.4-5.8,7.1-6.7,12.4c0,0,41.4,0,41.4,0Z"/>
  <path class="st0" d="M614.9,82.5h36.2v16.8c3.9-6.1,8.6-10.8,14.2-14.1,5.6-3.3,12.1-4.9,19.6-4.9h3.1c1.1,0,2.4.1,3.9.4v34.6c-4.8-2.4-10-3.6-15.6-3.6-8.4,0-14.7,2.5-18.9,7.5s-6.3,12.3-6.3,21.9v44h-36.2v-102.6Z"/>
  <path class="st1" d="M679.5,170.7c0-2.4.5-4.7,1.3-6.8.9-2.1,2.2-4,3.8-5.6,1.6-1.6,3.5-2.9,5.6-3.8s4.4-1.4,6.8-1.4,4.7.4,6.8,1.4c2.2.9,4,2.1,5.6,3.8s2.8,3.5,3.8,5.6c.9,2.1,1.3,4.4,1.3,6.8s-.5,4.7-1.3,6.8c-.9,2.1-2.2,4-3.8,5.6-1.6,1.6-3.5,2.9-5.6,3.8-2.2.9-4.4,1.4-6.8,1.4s-4.7-.4-6.8-1.4c-2.2-.9-4-2.1-5.6-3.8-1.6-1.6-2.8-3.5-3.8-5.6s-1.3-4.4-1.3-6.8Z"/>
</svg>